<?xml version="1.0" encoding="UTF-8" standalone="no"?>
<svg
   xmlns:dc="http://purl.org/dc/elements/1.1/"
   xmlns:cc="http://creativecommons.org/ns#"
   xmlns:rdf="http://www.w3.org/1999/02/22-rdf-syntax-ns#"
   xmlns:svg="http://www.w3.org/2000/svg"
   xmlns="http://www.w3.org/2000/svg"
   xmlns:xlink="http://www.w3.org/1999/xlink"
   xmlns:sodipodi="http://sodipodi.sourceforge.net/DTD/sodipodi-0.dtd"
   xmlns:inkscape="http://www.inkscape.org/namespaces/inkscape"
   version="1.1"
   id="Capa_1"
   x="0px"
   y="0px"
   width="261.002px"
   height="260px"
   viewBox="0 0 261.002 260"
   enable-background="new 0 0 261.002 260"
   xml:space="preserve"
   inkscape:version="0.91 r13725"
   sodipodi:docname="bid_2.svg"
   inkscape:export-filename="/Users/Alex/Documents/developpement/community-organizer.git/src/img/bid_2.svg"
   inkscape:export-xdpi="90"
   inkscape:export-ydpi="90"><sodipodi:namedview
     pagecolor="#ffffff"
     bordercolor="#666666"
     borderopacity="1"
     objecttolerance="10"
     gridtolerance="10"
     guidetolerance="10"
     inkscape:pageopacity="0"
     inkscape:pageshadow="2"
     inkscape:window-width="1437"
     inkscape:window-height="850"
     id="namedview4475"
     showgrid="false"
     inkscape:zoom="1.7759259"
     inkscape:cx="98.594777"
     inkscape:cy="159.09645"
     inkscape:window-x="48"
     inkscape:window-y="0"
     inkscape:window-maximized="0"
     inkscape:current-layer="Capa_1" /><metadata
     id="metadata4479"><rdf:RDF><cc:Work
         rdf:about=""><dc:format>IMAGE/SVG+XML</dc:format><dc:type
           rdf:resource="http://purl.org/dc/dcmitype/StillImage" /><dc:title></dc:title></cc:Work></rdf:RDF></metadata><defs
     id="defs4477" /><g
     id="g4137"><g
       id="g4139"><path
         id="path4141"
         d="m 231.002,115.57 c 0,3.551 -2.879,6.43 -6.431,6.43 l -44.141,0 c -3.552,0 -6.431,-2.879 -6.431,-6.43 l 0,-59.14 c 0,-3.551 2.879,-6.43 6.431,-6.43 l 44.141,0 c 3.552,0 6.4,2.9 6.4,6.43 l 0,59.14 0.031,0 z"
         inkscape:connector-curvature="0"
         style="fill:#ffffff" /><g
         id="g4143"><g
           id="g4145"><path
             id="path4147"
             d="m 189.299,91.055 -7.738,0 0,-17.677 6.879,0 c 1.197,0 2.2,0.1 3.1,0.4 0.868,0.3 1.5,0.7 2,1.163 0.791,0.9 1.2,1.9 1.2,3.086 0,1.384 -0.447,2.41 -1.341,3.1 -0.305,0.236 -0.516,0.385 -0.633,0.442 -0.119,0.059 -0.328,0.156 -0.633,0.291 1.096,0.2 2,0.7 2.6,1.5 0.649,0.8 1,1.7 1,2.796 0,1.229 -0.422,2.317 -1.266,3.263 C 193.43,90.5 191.7,91.1 189.3,91.055 Z m -3.793,-10.52 1.871,0 c 1.096,0 1.907,-0.119 2.438,-0.354 0.53,-0.235 0.797,-0.746 0.797,-1.529 0,-0.783 -0.244,-1.304 -0.731,-1.556 -0.489,-0.254 -1.315,-0.38 -2.479,-0.38 l -1.896,0 0,3.819 z m 0,7.182 2.705,0 c 1.129,0 1.977,-0.139 2.541,-0.418 0.564,-0.276 0.848,-0.825 0.848,-1.644 0,-0.817 -0.299,-1.356 -0.896,-1.618 -0.6,-0.262 -1.556,-0.395 -2.871,-0.395 l -2.326,0 0,4.075 -0.001,0 z"
             inkscape:connector-curvature="0"
             style="fill:#000333" /><path
             id="path4149"
             d="m 198.983,73.378 3.943,0 0,17.677 -3.943,0 0,-17.677 z"
             inkscape:connector-curvature="0"
             style="fill:#000333" /><path
             id="path4151"
             d="m 220.783,75.692 c 1.687,1.5 2.5,3.7 2.5,6.437 0,2.737 -0.822,4.923 -2.47,6.5 -1.643,1.602 -4.147,2.401 -7.521,2.401 l -6.043,0 0,-17.652 6.246,0 c 3.183,0.022 5.605,0.722 7.305,2.314 z M 217.889,86.2 c 0.969,-0.91 1.453,-2.234 1.453,-3.972 0,-1.736 -0.484,-3.071 -1.453,-4.008 -0.971,-0.936 -2.459,-1.403 -4.465,-1.403 l -2.199,0 0,10.748 2.504,0 C 215.531,87.6 216.9,87.1 217.9,86.199 Z"
             inkscape:connector-curvature="0"
             style="fill:#000333" /></g></g><g
         id="g4153"><g
           id="g4155"><path
             d="m 214.106,215.444 c 0,6.381 -5.174,11.556 -11.555,11.556 l -16.315,0 c -6.381,0 -11.555,-5.175 -11.555,-11.556 l 2.719,-35.117 c 0,-6.383 5.174,-11.327 11.556,-11.327 l 10.877,0 c 6.381,0 11.6,4.9 11.6,11.327 l 2.673,35.117 z"
             id="XMLID_37_"
             inkscape:connector-curvature="0"
             style="fill:#ca1e1f" /></g><g
           id="g4158"><g
             id="g4160"><defs
               id="defs4162"><path
                 d="m 214.106,215.444 c 0,6.381 -5.174,11.556 -11.555,11.556 l -16.315,0 c -6.381,0 -11.555,-5.175 -11.555,-11.556 l 2.719,-35.117 c 0,-6.383 5.174,-11.327 11.556,-11.327 l 10.877,0 c 6.381,0 11.6,4.9 11.6,11.327 l 2.673,35.117 z"
                 id="SVGID_1_"
                 inkscape:connector-curvature="0" /></defs><clipPath
               id="SVGID_2_"><use
                 id="use4166"
                 overflow="visible"
                 xlink:href="#SVGID_1_"
                 style="overflow:visible"
                 x="0"
                 y="0"
                 width="100%"
                 height="100%" /></clipPath><ellipse
               id="ellipse4168"
               ry="5.4000001"
               rx="15"
               cy="174.7"
               cx="194.39999"
               clip-path="url(#SVGID_2_)"
               style="fill:#99070e" /></g></g></g><g
         id="g4170"><g
           id="g4172"><path
             d="m 179.463,128.905 18.809,-18.938 c 0,0 1.406,-1.571 2.979,-1.571 1.574,0 2.4,0.3 2.4,0.262 l 10.916,7.186 c 0,0 0.4,1 0.4,1.574 0,0.5 0,6.5 0,6.506 l -35.504,4.981 z"
             id="XMLID_36_"
             inkscape:connector-curvature="0"
             style="fill:#e5a383" /></g></g><g
         id="g4175"><path
           id="path4177"
           d="m 202.025,121.632 0.632,-5.05 0.417,5.072 c 0.024,0.29 -0.19,0.545 -0.481,0.6 -0.289,0.023 -0.545,-0.19 -0.567,-0.481 C 202.022,121.7 202,121.7 202,121.632 Z"
           inkscape:connector-curvature="0"
           style="fill:#b56d57" /></g><path
         id="path4179"
         d="m 184.877,172.622 c 0,0 -6.414,-33.999 -6.867,-36.113 -0.785,-3.67 -0.785,-6.555 1.574,-7.604 2.032,-0.903 29.891,-9.652 29.891,-9.652 0,0 1.836,-0.263 2.9,0.263 1.049,0.5 9.2,16.5 9.2,16.471 0,-0.029 1.049,2.098 -0.262,3.4 -0.668,0.667 -3.934,3.407 -3.934,3.407 l -4.457,15.994 -1.836,1.312 -5.506,12.848 c 0,0 -2.055,7.285 -10.47,6.5 C 184.322,178.4 184.9,172.6 184.9,172.622 Z"
         inkscape:connector-curvature="0"
         style="fill:#fcbd9a" /><g
         id="g4181"><path
           id="path4183"
           d="m 191.906,131 c 0,0 9.8,0.3 19.6,0.424 0.612,0 1.2,0.1 1.8,0.1 0.638,0.1 1.3,0.3 1.8,0.58 1.102,0.6 1.8,1.8 2,2.942 0.1,0.6 0,1.2 0,1.7 -0.019,0.551 -0.035,1.094 -0.054,1.618 -0.032,1.053 -0.063,2.049 -0.094,2.965 -0.115,3.668 -0.193,6.113 -0.193,6.1 0,-0.013 0.029,-2.445 0.072,-6.113 0.012,-0.918 0.021,-1.912 0.035,-2.965 0.008,-0.524 0.014,-1.063 0.021,-1.616 0.002,-0.556 0.047,-1.117 -0.066,-1.66 -0.189,-1.1 -0.908,-2.119 -1.93,-2.657 -0.507,-0.276 -1.078,-0.419 -1.654,-0.448 -0.59,-0.02 -1.215,0.01 -1.822,0.016 -9.785,0.146 -19.571,0.291 -19.571,0.291 -0.29,0.004 -0.528,-0.36 -0.532,-0.649 -0.004,-0.291 0.228,-0.666 0.518,-0.666 C 191.897,131 191.9,131 191.9,131 Z"
           inkscape:connector-curvature="0"
           style="fill:#ce8163" /></g><g
         id="g4185"><path
           id="path4187"
           d="m 195.002,141 18.012,0 c 2.316,0 4,2 4,4.293 l 0,11.799 c 0,2.315 -1.672,4.908 -3.988,4.908 l -6.012,0"
           inkscape:connector-curvature="0"
           style="fill:#fcbd9a" /><path
           id="path4189"
           d="m 194.792,141 c 0,0 3.1,0 7.7,0.065 2.303,0 5,0 7.9,0.1 0.719,0 1.4,0 2.2,0.021 0.194,0 0.344,-0.004 0.6,0.011 l 0.56,0.052 c 0.18,0 0.4,0.1 0.6,0.1 0.196,0.1 0.4,0.1 0.6,0.198 0.771,0.3 1.4,0.9 1.8,1.667 0.213,0.4 0.3,0.8 0.4,1.2 0.037,0.4 0.1,0.8 0.1,1.195 -0.033,3.068 -0.063,6.14 -0.096,9.017 -0.062,1.4 0.1,2.838 -0.299,4.2 -0.395,1.289 -1.316,2.348 -2.424,2.763 l -0.41,0.149 -0.426,0.05 c -0.279,0.042 -0.551,0.055 -0.812,0 -0.523,-0.006 -1.021,-0.01 -1.488,-0.016 -0.936,-0.011 -1.752,-0.02 -2.422,-0.025 -1.344,-0.014 -2.111,-0.022 -2.111,-0.022 0,0 0.769,-0.008 2.111,-0.021 0.67,-0.008 1.486,-0.018 2.422,-0.025 0.922,-0.055 2,0.1 3.076,-0.279 1.043,-0.416 1.9,-1.441 2.25,-2.681 0.363,-1.229 0.174,-2.66 0.201,-4.09 -0.031,-2.877 -0.064,-5.946 -0.098,-9.017 0.076,-1.485 -0.631,-2.946 -1.953,-3.453 -0.15,-0.094 -0.322,-0.1 -0.48,-0.15 -0.162,-0.042 -0.312,-0.098 -0.51,-0.098 l -0.561,-0.041 c -0.131,-0.006 -0.355,0.003 -0.527,0.003 -0.74,0.008 -1.473,0.016 -2.191,0.021 -2.877,0.03 -5.562,0.062 -7.865,0.1 -4.604,0.049 -7.674,0.081 -7.674,0.081 -0.289,0.003 -0.525,-0.213 -0.528,-0.502 -0.005,-0.29 0.228,-0.514 0.518,-0.514 C 194.782,141 194.8,141 194.8,141 Z"
           inkscape:connector-curvature="0"
           style="fill:#ce8163" /></g><g
         id="g4191"><path
           id="path4193"
           d="m 209.736,154 c 0,0 -1.319,0.134 -3.299,0.081 -0.492,-0.006 -1.062,0.025 -1.527,0.1 -0.495,0.069 -1.015,0.322 -1.471,0.65 -0.931,0.647 -1.54,1.872 -1.438,3.141 0.055,0.6 0.3,1.2 0.6,1.7 0.346,0.5 0.8,0.9 1.4,1.204 0.53,0.3 1.1,0.4 1.7,0.413 0.565,0 1.1,0 1.6,0 1.979,0 3.3,0.1 3.3,0.062 0,-0.038 -1.32,0.023 -3.299,0.061 -0.496,0.012 -1.031,0.021 -1.6,0 -0.576,0.022 -1.203,-0.076 -1.785,-0.344 -1.187,-0.509 -2.146,-1.716 -2.32,-3.144 -0.08,-0.673 0.005,-1.412 0.273,-2.057 0.271,-0.645 0.694,-1.221 1.227,-1.639 0.527,-0.422 1.133,-0.711 1.756,-0.834 0.65,-0.127 1.166,-0.09 1.662,-0.115 1.979,-0.053 3.299,-0.088 3.299,-0.088 0.291,-0.008 0.5,0.1 0.5,0.341 0.008,0.289 -0.221,0.369 -0.51,0.4 C 209.756,154 209.7,154 209.7,154 Z"
           inkscape:connector-curvature="0"
           style="fill:#ce8163" /></g><g
         id="g4195"><path
           id="path4197"
           d="m 208.842,131.156 2.729,-1.988 -1.989,2.73 c -0.173,0.235 -0.504,0.287 -0.74,0.114 -0.236,-0.173 -0.289,-0.505 -0.117,-0.739 0.033,-0.073 0.075,-0.073 0.075,-0.117 z"
           inkscape:connector-curvature="0"
           style="fill:#ce8163" /></g><g
         id="g4199"><path
           id="path4201"
           d="m 209.574,153.459 2.521,-1.479 -1.936,2.189 c -0.17,0.191 -0.465,0.211 -0.658,0 -0.19,-0.171 -0.211,-0.465 -0.041,-0.658 0.035,-0.011 0.04,-0.011 0.14,-0.052 z"
           inkscape:connector-curvature="0"
           style="fill:#ce8163" /></g><g
         id="g4203"><path
           id="path4205"
           d="m 204.033,154.491 -5.31,-3.037 5.701,2.207 c 0.238,0.1 0.4,0.4 0.3,0.6 -0.092,0.238 -0.358,0.354 -0.599,0.265 C 204.074,154.5 204.1,154.5 204,154.491 Z"
           inkscape:connector-curvature="0"
           style="fill:#ce8163" /></g><g
         id="g4207"><path
           id="path4209"
           d="m 186.385,142.013 c 0,0 -0.16,0.008 -0.439,0.021 -0.132,0.014 -0.331,-0.004 -0.486,0 -0.158,0.039 -0.338,0.082 -0.533,0.127 -0.195,0.066 -0.404,0.181 -0.635,0.275 -0.215,0.122 -0.418,0.289 -0.646,0.4 -0.173,0.208 -0.405,0.389 -0.556,0.637 -0.146,0.249 -0.334,0.49 -0.412,0.782 l -0.156,0.424 -0.066,0.4 c -0.059,0.29 -0.068,0.604 -0.082,0.905 -0.031,0.602 -0.061,1.162 -0.084,1.643 -0.051,0.961 -0.082,1.604 -0.082,1.6 0,-0.004 -0.033,-0.643 -0.082,-1.604 -0.023,-0.479 -0.055,-1.041 -0.084,-1.643 -0.018,-0.301 -0.039,-0.605 -0.012,-0.941 l 0.026,-0.503 0.124,-0.493 c 0.059,-0.343 0.236,-0.641 0.382,-0.948 0.149,-0.308 0.392,-0.551 0.581,-0.817 0.242,-0.215 0.475,-0.441 0.719,-0.616 0.264,-0.149 0.504,-0.308 0.75,-0.421 0.266,-0.09 0.508,-0.172 0.725,-0.243 0.221,-0.07 0.369,-0.063 0.516,-0.095 0.275,-0.041 0.438,-0.063 0.438,-0.063 0.285,-0.042 0.6,0.2 0.6,0.442 0.041,0.287 -0.156,0.554 -0.443,0.6 C 186.422,142 186.4,142 186.4,142.013 Z"
           inkscape:connector-curvature="0"
           style="fill:#ce8163" /></g><g
         id="g4211"><path
           id="path4213"
           d="m 184.551,132.05 c 0,0 -0.161,0.007 -0.441,0.021 -0.131,0.014 -0.33,-0.004 -0.486,0 -0.158,0.035 -0.338,0.08 -0.533,0.127 -0.194,0.065 -0.404,0.18 -0.635,0.273 -0.215,0.122 -0.418,0.289 -0.645,0.4 -0.174,0.208 -0.406,0.39 -0.557,0.637 -0.146,0.25 -0.334,0.49 -0.412,0.782 l -0.156,0.424 -0.066,0.4 c -0.059,0.289 -0.068,0.604 -0.082,0.904 -0.031,0.602 -0.061,1.16 -0.084,1.643 -0.05,0.962 -0.082,1.604 -0.082,1.6 0,-0.004 -0.033,-0.642 -0.082,-1.604 -0.023,-0.48 -0.054,-1.041 -0.084,-1.643 -0.017,-0.301 -0.039,-0.605 -0.012,-0.941 l 0.027,-0.502 0.123,-0.494 c 0.06,-0.342 0.236,-0.641 0.383,-0.948 0.148,-0.307 0.391,-0.55 0.581,-0.817 0.243,-0.217 0.474,-0.44 0.72,-0.616 0.262,-0.149 0.502,-0.31 0.748,-0.421 0.266,-0.09 0.51,-0.172 0.725,-0.243 0.219,-0.069 0.369,-0.064 0.516,-0.095 0.275,-0.041 0.438,-0.062 0.438,-0.062 0.286,-0.043 0.6,0.2 0.6,0.441 0.043,0.287 -0.155,0.555 -0.442,0.6 C 184.586,132 184.6,132 184.6,132.05 Z"
           inkscape:connector-curvature="0"
           style="fill:#ce8163" /></g><g
         id="g4215"><path
           id="path4217"
           d="m 202.035,157.128 -6.981,2.191 6.652,-3.053 c 0.23,-0.104 0.506,-0.004 0.6,0.2 0.105,0.2 0,0.505 -0.229,0.61 -0.006,0.024 0.023,0.024 -0.077,0.052 z"
           inkscape:connector-curvature="0"
           style="fill:#ce8163" /></g><path
         id="path4219"
         d="m 176.721,188.256 c 0,0 10.9,8.8 30.6,2.7"
         stroke-miterlimit="10"
         inkscape:connector-curvature="0"
         style="fill:none;stroke:#99070e;stroke-miterlimit:10" /><g
         id="g4221"><polygon
           id="polygon4223"
           points="179.8,190.3 179.1,190.2 180.8,180.1 "
           style="fill:#147c4a" /></g><line
         id="line4225"
         y2="181.5"
         x2="184.89999"
         y1="191.7"
         x1="184.2"
         stroke-miterlimit="10"
         style="fill:none;stroke:#99070e;stroke-miterlimit:10" /><line
         id="line4227"
         y2="183"
         x2="190.5"
         y1="193"
         x1="190.5"
         stroke-miterlimit="10"
         style="fill:none;stroke:#99070e;stroke-miterlimit:10" /><line
         id="line4229"
         y2="183"
         x2="194.5"
         y1="193"
         x1="194.5"
         stroke-miterlimit="10"
         style="fill:none;stroke:#99070e;stroke-miterlimit:10" /><line
         id="line4231"
         y2="182.8"
         x2="199.8"
         y1="192.3"
         x1="200.5"
         stroke-miterlimit="10"
         style="fill:none;stroke:#99070e;stroke-miterlimit:10" /><line
         id="line4233"
         y2="182.10001"
         x2="204.60001"
         y1="191.7"
         x1="205.89999"
         stroke-miterlimit="10"
         style="fill:none;stroke:#99070e;stroke-miterlimit:10" /><path
         id="path4235"
         d="m 195.442,175.103 c -3.986,0 -7.123,-1.508 -10.561,-3.035 0.051,0.3 0.1,0.4 0.1,0.4 0,0 -0.533,5.5 9.8,6.551 7.224,0.7 11.794,-4.586 14.412,-17.032 C 203.959,172.5 198.5,175.1 195.4,175.103 Z"
         inkscape:connector-curvature="0"
         style="fill:#e5a383" /></g></g><g
     id="g4237"><g
       id="g4239"><path
         id="path4241"
         d="M 152,57.434 C 152,53.329 148.672,50 144.564,50 l -51.13,0 C 89.328,50 86,53.3 86,57.434 l 0,68.133 c 0,4.1 3.3,7.4 7.4,7.433 l 51.135,0 c 4.104,0 7.432,-3.328 7.432,-7.433 l 0,-68.133 0.033,0 z"
         inkscape:connector-curvature="0"
         style="fill:#ffffff" /><g
         id="g4243"><g
           id="g4245"><path
             d="m 105.643,240.713 c 0,7.4 6,13.3 13.4,13.285 l 18.856,0 c 7.377,0 13.355,-5.908 13.355,-13.285 l -3.143,-40.604 c 0,-7.377 -5.98,-13.107 -13.357,-13.107 l -12.57,0 c -7.377,0 -13.354,5.73 -13.354,13.107 l -3.187,40.604 z"
             id="XMLID_35_"
             inkscape:connector-curvature="0"
             style="fill:#e59b1a" /></g><g
           id="g4248"><g
             id="g4250"><defs
               id="defs4252"><path
                 d="m 105.643,240.713 c 0,7.4 6,13.3 13.4,13.285 l 18.856,0 c 7.377,0 13.355,-5.908 13.355,-13.285 l -3.143,-40.604 c 0,-7.377 -5.98,-13.107 -13.357,-13.107 l -12.57,0 c -7.377,0 -13.354,5.73 -13.354,13.107 l -3.187,40.604 z"
                 id="SVGID_3_"
                 inkscape:connector-curvature="0" /></defs><clipPath
               id="SVGID_4_"><use
                 id="use4256"
                 overflow="visible"
                 xlink:href="#SVGID_3_"
                 style="overflow:visible"
                 x="0"
                 y="0"
                 width="100%"
                 height="100%" /></clipPath><ellipse
               id="ellipse4258"
               ry="6.3000002"
               rx="17.299999"
               cy="193.60001"
               cx="128.39999"
               clip-path="url(#SVGID_4_)"
               style="fill:#bf7c10" /></g></g></g><g
         id="g4260"><g
           id="g4262"><path
             d="m 145.383,140.752 -21.588,-21.889 c 0,0 -1.549,-1.818 -3.367,-1.818 -1.818,0 -2.746,0.303 -2.746,0.3 l -12.902,8.307 c 0,0 -0.777,1.213 -0.777,1.819 0,0.6 0,7.5 0,7.52 l 41.38,5.761 z"
             id="XMLID_34_"
             inkscape:connector-curvature="0"
             style="fill:#e5a383" /></g></g><g
         id="g4265"><path
           id="path4267"
           d="m 118.395,132.369 0.482,-5.861 0.729,5.835 c 0.041,0.334 -0.193,0.639 -0.527,0.7 -0.334,0.041 -0.641,-0.195 -0.682,-0.529 -0.004,-0.014 0.003,-0.114 0.003,-0.145 z"
           inkscape:connector-curvature="0"
           style="fill:#b56d57" /></g><path
         id="path4269"
         d="m 139.43,191.285 c 0,0 7.414,-39.301 7.938,-41.744 0.908,-4.242 0.908,-7.576 -1.818,-8.789 -2.35,-1.045 -34.551,-11.158 -34.551,-11.158 0,0 -2.121,-0.303 -3.334,0.307 -1.213,0.604 -10.606,19.037 -10.606,19 0,-0.037 -1.213,2.4 0.3,3.938 0.772,0.8 4.5,3.9 4.5,3.939 l 5.151,18.486 2.121,1.518 6.364,14.85 c 0,0 2.4,8.4 12.1,7.5 12.472,-1.232 11.805,-7.832 11.805,-7.847 z"
         inkscape:connector-curvature="0"
         style="fill:#fcbd9a" /><g
         id="g4271"><path
           id="path4273"
           d="m 131.303,145 c 0,0 -11.311,-0.32 -22.624,-0.49 -0.701,-0.004 -1.426,-0.111 -2.105,-0.094 -0.666,0.035 -1.328,0.16 -1.914,0.48 -1.18,0.621 -2.012,1.783 -2.229,3.053 -0.131,0.629 -0.078,1.27 -0.078,1.9 0.008,0.6 0,1.3 0,1.865 0.014,1.2 0,2.4 0,3.422 0.049,4.2 0.1,7.1 0.1,7.1 0,0 -0.09,-2.828 -0.228,-7.066 -0.03,-1.061 -0.067,-2.209 -0.106,-3.424 -0.021,-0.607 -0.039,-1.23 -0.06,-1.869 -0.012,-0.631 -0.082,-1.295 0.033,-1.977 0.19,-1.352 1.045,-2.664 2.317,-3.385 0.627,-0.367 1.354,-0.574 2.09,-0.631 0.728,-0.043 1.418,-0.031 2.13,-0.049 11.312,-0.168 22.623,-0.336 22.623,-0.336 0.336,-0.006 0.6,0.4 0.6,0.8 0.006,0.338 -0.264,0.77 -0.598,0.77 C 131.313,145 131.3,145 131.3,145 Z"
           inkscape:connector-curvature="0"
           style="fill:#ce8163" /></g><g
         id="g4275"><path
           id="path4277"
           d="m 128,155 -21.097,0 c -2.678,0 -3.903,2.018 -3.903,4.693 l 0,13.639 c 0,2.7 1.2,5.7 3.9,5.666 l 7.1,0"
           inkscape:connector-curvature="0"
           style="fill:#fcbd9a" /><path
           id="path4279"
           d="m 127.969,156 c 0,0 -3.549,-0.086 -8.872,-0.143 -2.662,-0.027 -5.766,-0.084 -9.094,-0.119 -0.832,-0.01 -1.678,-0.031 -2.533,-0.039 -0.199,0 -0.461,-0.018 -0.611,-0.008 l -0.645,0.043 c -0.23,0 -0.404,0.062 -0.59,0.1 -0.187,0.061 -0.383,0.066 -0.558,0.176 -1.528,0.586 -2.346,2.273 -2.256,3.992 -0.037,3.551 -0.076,7.098 -0.108,10.4 -0.011,0.832 -0.021,1.648 -0.027,2.447 -0.025,0.8 0,1.6 0.3,2.275 0.414,1.4 1.4,2.6 2.6,3.1 0.605,0.3 1.2,0.3 1.8,0.279 0.605,0 1.2,0 1.7,0.018 1.082,0 2,0 2.8,0 1.553,0 2.4,0 2.4,0.023 0,0.023 -0.889,0.01 -2.438,0.025 -0.774,0.008 -1.72,0.018 -2.802,0 -0.54,0.006 -1.114,0.012 -1.723,0.02 -0.598,0.021 -1.274,0.004 -1.912,-0.254 -1.285,-0.49 -2.33,-1.729 -2.793,-3.211 -0.244,-0.742 -0.328,-1.559 -0.317,-2.357 -0.009,-0.801 -0.019,-1.615 -0.025,-2.447 -0.034,-3.326 -0.071,-6.877 -0.11,-10.424 -0.019,-0.436 0.041,-0.928 0.084,-1.385 0.117,-0.459 0.207,-0.926 0.453,-1.344 0.432,-0.838 1.147,-1.588 2.043,-1.93 0.201,-0.127 0.453,-0.156 0.682,-0.23 0.232,-0.061 0.475,-0.139 0.682,-0.143 l 0.646,-0.061 c 0.279,-0.018 0.447,-0.008 0.676,-0.014 0.855,-0.01 1.701,-0.02 2.533,-0.027 3.326,-0.035 6.432,-0.068 9.094,-0.098 5.322,-0.059 8.872,-0.094 8.872,-0.094 0.334,-0.006 0.6,0.3 0.6,0.645 0.004,0.336 -0.268,0.66 -0.602,0.66 C 127.979,156 128,156 128,156 Z"
           inkscape:connector-curvature="0"
           style="fill:#ce8163" /></g><g
         id="g4281"><path
           id="path4283"
           d="m 110.692,169 c 0,0 1.5,0 3.8,0.07 0.572,0 1.168,-0.029 1.9,0.1 0.719,0.1 1.4,0.5 2,0.957 0.611,0.5 1.1,1.1 1.4,1.889 0.312,0.7 0.4,1.6 0.3,2.4 -0.205,1.65 -1.312,3.045 -2.684,3.633 -0.674,0.311 -1.398,0.424 -2.064,0.396 -0.654,-0.014 -1.273,-0.023 -1.848,-0.035 -2.287,-0.041 -3.812,-0.07 -3.812,-0.07 0,0 1.525,-0.025 3.812,-0.066 0.572,-0.014 1.193,-0.021 1.848,-0.033 0.646,-0.008 1.314,-0.154 1.93,-0.479 0.615,-0.311 1.162,-0.793 1.562,-1.385 0.407,-0.582 0.639,-1.311 0.7,-1.992 0.046,-0.738 -0.084,-1.438 -0.385,-2.07 -0.305,-0.621 -0.746,-1.158 -1.281,-1.531 -0.524,-0.381 -1.125,-0.623 -1.698,-0.703 -0.541,-0.088 -1.194,-0.025 -1.765,-0.021 -2.289,0.062 -3.813,0.104 -3.813,0.104 -0.334,0.008 -0.61,-0.227 -0.623,-0.561 -0.008,-0.336 0.259,-0.592 0.593,-0.592 C 110.672,169 110.7,169 110.7,169 Z"
           inkscape:connector-curvature="0"
           style="fill:#ce8163" /></g><g
         id="g4285"><path
           id="path4287"
           d="m 110.871,144.211 -2.302,-3.154 3.156,2.301 c 0.274,0.2 0.3,0.6 0.1,0.9 -0.196,0.273 -0.582,0.334 -0.854,0.137 -0.018,-0.095 -0.071,-0.095 -0.071,-0.184 z"
           inkscape:connector-curvature="0"
           style="fill:#ce8163" /></g><g
         id="g4289"><path
           id="path4291"
           d="m 110.205,169.955 -2.238,-2.531 2.914,1.711 c 0.256,0.1 0.3,0.5 0.2,0.7 -0.147,0.256 -0.479,0.342 -0.733,0.191 C 110.285,170 110.2,170 110.2,169.955 Z"
           inkscape:connector-curvature="0"
           style="fill:#ce8163" /></g><g
         id="g4293"><path
           id="path4295"
           d="m 116.83,169.367 6.594,-2.551 -6.137,3.512 c -0.257,0.146 -0.582,0.057 -0.729,-0.199 -0.147,-0.256 -0.06,-0.58 0.196,-0.727 0.024,-0.002 0.046,-0.002 0.046,-0.035 z"
           inkscape:connector-curvature="0"
           style="fill:#ce8163" /></g><g
         id="g4297"><path
           id="path4299"
           d="m 137.801,154.695 c 0,0 0.2,0 0.5,0.074 0.166,0 0.3,0 0.6,0.1 0.248,0.1 0.5,0.2 0.8,0.281 0.285,0.1 0.6,0.3 0.9,0.486 0.283,0.2 0.6,0.5 0.8,0.7 0.221,0.3 0.5,0.6 0.7,0.941 0.168,0.4 0.4,0.7 0.4,1.1 l 0.145,0.568 0.029,0.6 c 0.033,0.4 0,0.742 -0.012,1.092 -0.035,0.693 -0.068,1.344 -0.1,1.896 -0.057,1.111 -0.096,1.854 -0.096,1.9 0,0.046 -0.037,-0.74 -0.094,-1.854 -0.029,-0.557 -0.062,-1.203 -0.098,-1.896 -0.018,-0.35 -0.027,-0.711 -0.096,-1.049 l -0.078,-0.516 -0.182,-0.49 c -0.088,-0.338 -0.307,-0.613 -0.475,-0.902 -0.178,-0.285 -0.443,-0.494 -0.646,-0.734 -0.262,-0.182 -0.496,-0.373 -0.744,-0.516 -0.266,-0.109 -0.508,-0.24 -0.732,-0.318 -0.229,-0.055 -0.436,-0.105 -0.617,-0.146 -0.178,-0.049 -0.408,-0.027 -0.562,-0.045 -0.322,-0.014 -0.51,-0.021 -0.51,-0.021 -0.336,-0.016 -0.596,-0.297 -0.58,-0.633 0.018,-0.334 0.297,-0.594 0.633,-0.58 0.074,-0.033 0.114,-0.033 0.114,-0.038 z"
           inkscape:connector-curvature="0"
           style="fill:#ce8163" /></g><g
         id="g4301"><path
           id="path4303"
           d="m 139.922,143.182 c 0,0 0.2,0 0.5,0.072 0.166,0 0.3,0 0.6,0.1 0.248,0.1 0.5,0.2 0.8,0.281 0.283,0.1 0.6,0.3 0.9,0.484 0.283,0.2 0.6,0.5 0.8,0.7 0.219,0.3 0.5,0.6 0.7,0.945 0.166,0.4 0.4,0.7 0.4,1.096 l 0.145,0.572 0.031,0.6 c 0.031,0.4 0,0.742 -0.014,1.09 -0.035,0.693 -0.068,1.342 -0.1,1.896 -0.057,1.109 -0.094,1.854 -0.094,1.9 0,0.046 -0.039,-0.742 -0.096,-1.854 -0.029,-0.557 -0.062,-1.203 -0.098,-1.896 -0.016,-0.348 -0.027,-0.713 -0.096,-1.047 l -0.078,-0.516 -0.18,-0.49 c -0.09,-0.338 -0.311,-0.615 -0.479,-0.904 -0.176,-0.287 -0.441,-0.496 -0.645,-0.736 -0.26,-0.18 -0.496,-0.373 -0.744,-0.516 -0.266,-0.109 -0.508,-0.24 -0.73,-0.318 -0.23,-0.053 -0.438,-0.104 -0.617,-0.145 -0.184,-0.049 -0.41,-0.029 -0.562,-0.045 -0.324,-0.016 -0.51,-0.021 -0.51,-0.021 -0.334,-0.016 -0.596,-0.299 -0.58,-0.633 0.014,-0.336 0.297,-0.596 0.633,-0.58 0.073,-0.017 0.092,-0.017 0.092,-0.035 z"
           inkscape:connector-curvature="0"
           style="fill:#ce8163" /></g><g
         id="g4305"><path
           id="path4307"
           d="m 119.977,172.381 7.69,3.527 -8.071,-2.535 c -0.281,-0.088 -0.438,-0.387 -0.35,-0.668 0.088,-0.279 0.387,-0.438 0.668,-0.348 0.022,0.043 0.086,0.043 0.086,0.024 z"
           inkscape:connector-curvature="0"
           style="fill:#ce8163" /></g><path
         id="path4309"
         d="m 148.856,209.355 c 0,0 -12.568,10.215 -35.356,3.1"
         stroke-miterlimit="10"
         inkscape:connector-curvature="0"
         style="fill:none;stroke:#bf7c10;stroke-miterlimit:10" /><g
         id="g4311"><polygon
           id="polygon4313"
           points="146.1,211.7 145.3,211.8 144.1,199.9 "
           style="fill:#147c4a" /></g><g
         id="g4315"><polygon
           id="polygon4317"
           points="140.6,213.3 139.8,213.3 139.4,201.5 "
           style="fill:#147c4a" /></g><g
         id="g4319"><polygon
           id="polygon4321"
           points="133.1,215 132.4,215 132.8,203.2 "
           style="fill:#147c4a" /></g><line
         id="line4323"
         y2="203"
         x2="126.5"
         y1="215"
         x1="126.5"
         stroke-miterlimit="10"
         style="fill:none;stroke:#bf7c10;stroke-miterlimit:10" /><line
         id="line4325"
         y2="203.10001"
         x2="122.1"
         y1="214.10001"
         x1="121.4"
         stroke-miterlimit="10"
         style="fill:none;stroke:#bf7c10;stroke-miterlimit:10" /><line
         id="line4327"
         y2="202.3"
         x2="116.6"
         y1="213.3"
         x1="115.1"
         stroke-miterlimit="10"
         style="fill:none;stroke:#bf7c10;stroke-miterlimit:10" /><path
         id="path4329"
         d="m 126.771,194.172 c 4.617,0 8.248,-1.746 12.23,-3.516 -0.061,0.311 -0.09,0.48 -0.09,0.5 0,0.02 0.615,6.416 -11.383,7.586 -8.364,0.816 -13.655,-5.311 -16.69,-19.725 6.07,12.083 12.462,15.183 15.962,15.155 z"
         inkscape:connector-curvature="0"
         style="fill:#e5a383" /></g><g
       id="g4331"><path
         id="path4333"
         d="m 104.459,97 -8.945,0 0,-20.434 7.951,0 c 1.385,0 2.6,0.2 3.6,0.497 1.004,0.3 1.8,0.8 2.3,1.3 0.916,1.1 1.4,2.2 1.4,3.565 0,1.599 -0.516,2.787 -1.549,3.566 -0.352,0.273 -0.596,0.443 -0.73,0.5 -0.135,0.069 -0.381,0.181 -0.73,0.336 1.269,0.3 2.3,0.8 3,1.71 0.75,0.9 1.1,1.9 1.1,3.2 0,1.423 -0.488,2.68 -1.465,3.771 C 109.231,96.4 107.3,97 104.5,97 Z m -4.385,-12.16 2.161,0 c 1.269,0 2.207,-0.137 2.822,-0.41 0.612,-0.271 0.92,-0.86 0.92,-1.768 0,-0.908 -0.283,-1.506 -0.849,-1.799 -0.563,-0.292 -1.521,-0.438 -2.864,-0.438 l -2.19,0 0,4.415 z m 0,8.301 3.129,0 c 1.305,0 2.282,-0.159 2.938,-0.48 0.652,-0.321 0.979,-0.954 0.979,-1.9 0,-0.943 -0.346,-1.567 -1.037,-1.87 -0.69,-0.303 -1.799,-0.453 -3.317,-0.453 l -2.688,0 0,4.704 -0.004,-10e-4 0,0 z"
         inkscape:connector-curvature="0"
         style="fill:#000333" /><path
         id="path4335"
         d="m 115.653,76.566 4.562,0 0,20.434 -4.562,0 0,-20.434 z"
         inkscape:connector-curvature="0"
         style="fill:#000333" /><path
         id="path4337"
         d="m 140.854,79.241 c 1.947,1.8 2.9,4.3 2.9,7.439 0,3.177 -0.947,5.689 -2.85,7.5 -1.9,1.853 -4.799,2.778 -8.697,2.778 l -6.985,0 0,-20.392 7.221,0 c 3.663,0.034 6.457,0.934 8.457,2.675 z M 137.506,91.4 c 1.121,-1.052 1.682,-2.582 1.682,-4.589 0,-2.007 -0.561,-3.552 -1.682,-4.634 -1.121,-1.081 -2.84,-1.622 -5.16,-1.622 l -2.543,0 0,12.424 2.896,0 C 134.78,93 136.4,92.4 137.5,91.387 Z"
         inkscape:connector-curvature="0"
         style="fill:#000333" /></g></g><g
     id="g4339"><g
       id="g4341"><g
         id="g4343"><path
           id="path4345"
           d="m 84,95.54 c 0,5.225 -4.234,9.46 -9.46,9.46 L 9.46,105 C 4.235,105 0,100.8 0,95.54 L 0,9.46 C 0,4.2 4.2,0 9.5,0 L 74.58,0 C 79.766,0 84,4.2 84,9.46 l 0,86.08 z"
           inkscape:connector-curvature="0"
           style="fill:#ffffff" /><g
           id="g4347"><g
             id="g4349"><path
               id="path4351"
               d="m 22.506,60 -11.385,0 0,-26.006 10.119,0 c 1.761,0 3.3,0.2 4.6,0.632 1.276,0.4 2.2,1 2.9,1.7 1.164,1.3 1.7,2.9 1.7,4.539 0,2.034 -0.658,3.547 -1.973,4.539 -0.445,0.348 -0.757,0.564 -0.932,0.7 -0.174,0.088 -0.482,0.229 -0.93,0.429 1.611,0.3 2.9,1.1 3.9,2.176 0.953,1.1 1.4,2.5 1.4,4.1 0,1.811 -0.621,3.411 -1.86,4.8 C 28.582,59.2 26.1,60 22.5,60 Z m -5.582,-15.478 2.755,0 c 1.61,0 2.809,-0.174 3.59,-0.521 0.78,-0.347 1.172,-1.098 1.172,-2.251 0,-1.153 -0.359,-1.916 -1.078,-2.288 -0.721,-0.372 -1.937,-0.558 -3.646,-0.558 l -2.791,0 -0.002,5.596 0,0.022 z m 0,10.567 3.981,0 c 1.66,0 2.906,-0.204 3.738,-0.614 0.83,-0.408 1.246,-1.215 1.246,-2.418 0,-1.201 -0.439,-1.996 -1.32,-2.381 -0.881,-0.385 -2.289,-0.577 -4.223,-0.577 l -3.424,0 0.002,5.99 0,0 z"
               inkscape:connector-curvature="0"
               style="fill:#000333" /><path
               id="path4353"
               d="m 36.754,33.994 5.806,0 0,26.006 -5.806,0 0,-26.006 z"
               inkscape:connector-curvature="0"
               style="fill:#000333" /><path
               id="path4355"
               d="m 68.824,37.398 c 2.48,2.3 3.7,5.4 3.7,9.469 0,4.069 -1.209,7.242 -3.627,9.6 C 66.499,58.8 62.8,60 57.9,60 l -8.893,0 0,-26.006 9.189,0 C 62.784,34 66.3,35.1 68.8,37.398 Z M 64.564,52.9 c 1.426,-1.34 2.139,-3.286 2.139,-5.842 0,-2.555 -0.713,-4.521 -2.139,-5.896 -1.428,-1.376 -3.615,-2.064 -6.566,-2.064 l -3.236,0 0,15.812 3.684,0 C 61.098,54.9 63.1,54.2 64.6,52.856 Z"
               inkscape:connector-curvature="0"
               style="fill:#000333" /></g></g><g
           id="g4357"><g
             id="g4359"><path
               d="m 59,243 c 0,9.389 -7.611,17 -17,17 l -24,0 C 8.61,260 1,252.389 1,243 l 4,-52 c 0,-9.389 7.61,-17 17,-17 l 16,0 c 9.389,0 17,7.6 17,17 l 4,52 z"
               id="XMLID_45_"
               inkscape:connector-curvature="0"
               style="fill:#22b573" /></g><g
             id="g4362"><g
               id="g4364"><defs
                 id="defs4366"><path
                   d="m 59,243 c 0,9.389 -7.611,17 -17,17 l -24,0 C 8.61,260 1,252.389 1,243 l 4,-52 c 0,-9.389 7.61,-17 17,-17 l 16,0 c 9.389,0 17,7.6 17,17 l 4,52 z"
                   id="SVGID_5_"
                   inkscape:connector-curvature="0" /></defs><clipPath
                 id="SVGID_6_"><use
                   id="use4370"
                   overflow="visible"
                   xlink:href="#SVGID_5_"
                   style="overflow:visible"
                   x="0"
                   y="0"
                   width="100%"
                   height="100%" /></clipPath><ellipse
                 id="ellipse4372"
                 ry="8"
                 rx="22"
                 cy="183"
                 cx="30"
                 clip-path="url(#SVGID_6_)"
                 style="fill:#147c4a" /></g></g></g><g
           id="g4374"><g
             id="g4376"><path
               d="M 8.376,115.685 35.874,87.828 c 0,0 1.984,-2.314 4.299,-2.314 2.315,0 3.5,0.4 3.5,0.4 l 16.378,10.57 c 0,0 0.9,1.5 0.9,2.314 0,0.814 0,9.6 0,9.572 l -52.575,7.315 z"
               id="XMLID_44_"
               inkscape:connector-curvature="0"
               style="fill:#e5a383" /></g></g><g
           id="g4379"><path
             id="path4381"
             d="m 41.229,104.984 0.929,-7.431 0.614,7.461 c 0.035,0.429 -0.282,0.804 -0.711,0.8 -0.427,0.035 -0.801,-0.282 -0.836,-0.71 C 41.222,105.1 41.2,105 41.2,104.984 Z"
             inkscape:connector-curvature="0"
             style="fill:#b56d57" /></g><path
           id="path4383"
           d="m 16,180 c 0,0 -9.437,-50.018 -10.103,-53.129 -1.157,-5.4 -1.157,-9.645 2.314,-11.188 2.99,-1.328 43.974,-14.199 43.974,-14.199 0,0 2.701,-0.388 4.2,0.385 1.543,0.8 13.5,24.2 13.5,24.23 0,0.03 1.543,3.086 -0.386,5 -0.983,0.982 -5.786,5.014 -5.786,5.014 l -6.513,23.545 -2.7,1.93 -8.1,18.9 c 0,0 -3.021,10.719 -15.4,9.5 C 15.185,188.5 16,180 16,180 Z"
           inkscape:connector-curvature="0"
           style="fill:#fcbd9a" /><g
           id="g4385"><path
             id="path4387"
             d="m 26.342,119 c 0,0 14.4,0.3 28.8,0.506 0.905,0 1.8,0 2.7,0.1 0.937,0.1 1.9,0.4 2.7,0.822 1.62,0.9 2.7,2.6 3,4.318 0.146,0.9 0.1,1.7 0,2.5 -0.024,0.812 -0.051,1.607 -0.075,2.381 -0.05,1.546 -0.096,3.01 -0.139,4.357 -0.172,5.396 -0.285,8.992 -0.285,9 0,0.008 0.043,-3.598 0.107,-8.996 0.016,-1.35 0.033,-2.811 0.052,-4.357 0.009,-0.771 0.019,-1.566 0.028,-2.379 0,-0.816 0.066,-1.645 -0.099,-2.443 -0.278,-1.616 -1.338,-3.118 -2.839,-3.911 -0.744,-0.406 -1.588,-0.616 -2.436,-0.659 -0.867,-0.026 -1.789,0.016 -2.682,0.021 -14.396,0.214 -28.793,0.428 -28.793,0.428 -0.426,0.006 -0.776,-0.412 -0.782,-0.838 -0.007,-0.426 0.334,-0.861 0.76,-0.861 C 26.325,119 26.3,119 26.3,119 Z"
             inkscape:connector-curvature="0"
             style="fill:#ce8163" /></g><g
           id="g4389"><path
             id="path4391"
             d="m 31,134 26.395,0 c 3.408,0 5.6,2.4 5.6,5.793 l 0,17.357 c 0,3.408 -2.197,6.85 -5.605,6.85 L 48,164"
             inkscape:connector-curvature="0"
             style="fill:#fcbd9a" /><path
             id="path4393"
             d="m 30.585,133 c 0,0 4.5,0.3 11.3,0.336 3.388,0 7.3,0.2 11.6,0.2 1.059,0 2.1,0.1 3.2,0.088 0.291,0 0.5,0 0.9,0.045 l 0.819,0.09 c 0.266,0 0.6,0.1 0.9,0.2 0.289,0.1 0.6,0.1 0.9,0.297 1.137,0.4 2,1.4 2.6,2.457 0.312,0.5 0.4,1.1 0.6,1.7 0.053,0.6 0.1,1.2 0.1,1.763 -0.049,4.514 -0.097,9.03 -0.142,13.266 -0.013,1.06 -0.022,2.101 -0.033,3.1 0.012,1.021 -0.094,2.058 -0.404,3.002 -0.591,1.888 -1.92,3.461 -3.557,4.086 -0.81,0.326 -1.674,0.353 -2.434,0.3 -0.771,-0.01 -1.504,-0.019 -2.191,-0.022 -1.377,-0.017 -2.576,-0.027 -3.563,-0.037 -1.978,-0.021 -3.104,-0.033 -3.104,-0.033 0,0 1.129,-0.014 3.104,-0.033 0.987,-0.012 2.188,-0.023 3.563,-0.039 0.688,-0.008 1.42,-0.016 2.191,-0.023 0.776,0 1.573,-0.026 2.344,-0.354 1.543,-0.627 2.776,-2.149 3.305,-3.967 0.275,-0.91 0.355,-1.882 0.324,-2.896 -0.012,-1.02 -0.022,-2.061 -0.033,-3.118 -0.045,-4.232 -0.094,-8.75 -0.143,-13.267 0.115,-2.188 -0.924,-4.338 -2.871,-5.084 -0.221,-0.138 -0.474,-0.146 -0.705,-0.224 -0.238,-0.062 -0.459,-0.146 -0.752,-0.146 l -0.82,-0.06 c -0.191,-0.012 -0.523,0.003 -0.778,0 -1.089,0.012 -2.166,0.022 -3.225,0.032 -4.233,0.047 -8.187,0.088 -11.573,0.125 -6.774,0.072 -11.291,0.119 -11.291,0.1 -0.426,0.006 -0.774,-0.551 -0.778,-0.977 -0.006,-0.426 0.336,-0.994 0.762,-0.994 C 30.573,133 30.6,133 30.6,133 Z"
             inkscape:connector-curvature="0"
             style="fill:#ce8163" /></g><g
           id="g4395"><path
             id="path4397"
             d="m 52.572,153 c 0,0 -1.941,-0.002 -4.854,-0.08 -0.722,-0.006 -1.556,-0.061 -2.245,0.1 -0.729,0.103 -1.492,0.426 -2.162,0.906 -0.682,0.477 -1.245,1.168 -1.632,1.959 -0.382,0.803 -0.546,1.697 -0.486,2.6 0.078,0.9 0.4,1.8 0.9,2.533 0.509,0.8 1.2,1.4 2,1.767 0.779,0.4 1.6,0.6 2.5,0.6 0.836,0 1.6,0 2.4,0.043 2.913,0.1 4.9,0.1 4.9,0.091 0,-0.009 -1.941,0.034 -4.854,0.1 -0.728,0.014 -1.517,0.026 -2.353,0.043 -0.847,0.033 -1.769,-0.111 -2.627,-0.506 -0.864,-0.379 -1.659,-1.004 -2.264,-1.806 -0.618,-0.801 -1.001,-1.764 -1.149,-2.817 -0.116,-0.986 0.009,-2.078 0.404,-3.023 0.399,-0.947 1.022,-1.795 1.805,-2.408 0.774,-0.623 1.665,-1.047 2.581,-1.229 0.957,-0.188 1.715,-0.133 2.444,-0.17 2.913,-0.078 4.854,-0.131 4.854,-0.131 0.426,-0.013 0.8,0.3 0.8,0.698 0.013,0.427 -0.323,0.742 -0.75,0.742 C 52.602,153 52.6,153 52.6,153 Z"
             inkscape:connector-curvature="0"
             style="fill:#ce8163" /></g><g
           id="g4399"><path
             id="path4401"
             d="m 51.255,118.996 4.019,-2.926 -2.926,4.018 c -0.255,0.349 -0.744,0.426 -1.093,0.2 -0.349,-0.255 -0.425,-0.743 -0.171,-1.092 0.048,-0.096 0.116,-0.196 0.216,-0.2 z"
             inkscape:connector-curvature="0"
             style="fill:#ce8163" /></g><g
           id="g4403"><path
             id="path4405"
             d="m 52.335,151.807 3.709,-2.178 -2.849,3.223 c -0.252,0.283 -0.684,0.312 -0.967,0.1 -0.285,-0.25 -0.312,-0.685 -0.061,-0.967 0.05,-0.085 0.133,-0.185 0.133,-0.178 z"
             inkscape:connector-curvature="0"
             style="fill:#ce8163" /></g><g
           id="g4407"><path
             id="path4409"
             d="m 44.182,153.326 -7.811,-4.469 8.393,3.246 c 0.35,0.1 0.5,0.5 0.4,0.9 -0.135,0.35 -0.527,0.521 -0.877,0.387 -0.045,0.01 -0.087,-0.09 -0.087,-0.064 z"
             inkscape:connector-curvature="0"
             style="fill:#ce8163" /></g><g
           id="g4411"><path
             id="path4413"
             d="m 18.22,134.969 c 0,0 -0.236,0.01 -0.648,0.027 -0.193,0.02 -0.486,-0.004 -0.715,0.1 -0.229,0.062 -0.491,0.125 -0.785,0.188 -0.289,0.1 -0.598,0.266 -0.936,0.405 -0.314,0.181 -0.615,0.427 -0.947,0.7 -0.254,0.309 -0.597,0.572 -0.818,0.939 -0.215,0.365 -0.491,0.719 -0.604,1.148 l -0.231,0.622 -0.099,0.7 c -0.086,0.428 -0.102,0.892 -0.121,1.332 -0.045,0.885 -0.088,1.709 -0.123,2.416 -0.073,1.414 -0.121,2.354 -0.121,2.4 0,0.046 -0.049,-0.94 -0.12,-2.354 -0.036,-0.707 -0.078,-1.531 -0.123,-2.416 -0.024,-0.44 -0.06,-0.892 -0.017,-1.388 l 0.037,-0.737 0.185,-0.728 c 0.087,-0.504 0.348,-0.938 0.562,-1.396 0.221,-0.451 0.575,-0.81 0.854,-1.203 0.356,-0.315 0.696,-0.647 1.059,-0.907 0.388,-0.22 0.74,-0.451 1.103,-0.617 0.391,-0.133 0.748,-0.252 1.065,-0.359 0.322,-0.102 0.544,-0.094 0.757,-0.137 0.407,-0.062 0.642,-0.096 0.642,-0.096 0.423,-0.062 0.8,0.2 0.9,0.649 0.1,0.449 -0.229,0.815 -0.65,0.9 C 18.272,135 18.2,135 18.2,134.969 Z"
             inkscape:connector-curvature="0"
             style="fill:#ce8163" /></g><g
           id="g4415"><path
             id="path4417"
             d="m 15.519,120.311 c 0,0 -0.234,0.011 -0.647,0.027 -0.192,0.021 -0.487,-0.005 -0.716,0.1 -0.229,0.105 -0.49,0.123 -0.783,0.188 -0.29,0.099 -0.598,0.264 -0.936,0.405 -0.314,0.181 -0.615,0.426 -0.949,0.7 -0.254,0.308 -0.596,0.572 -0.816,0.938 -0.215,0.367 -0.492,0.721 -0.605,1.15 l -0.229,0.622 -0.101,0.7 c -0.084,0.428 -0.101,0.893 -0.12,1.332 -0.046,0.885 -0.087,1.709 -0.123,2.416 -0.072,1.414 -0.121,2.357 -0.121,2.4 0,0.043 -0.048,-0.943 -0.12,-2.357 -0.036,-0.707 -0.079,-1.531 -0.124,-2.416 -0.022,-0.439 -0.058,-0.891 -0.017,-1.387 l 0.039,-0.738 0.185,-0.727 c 0.086,-0.503 0.349,-0.941 0.562,-1.396 0.221,-0.452 0.576,-0.811 0.854,-1.205 0.356,-0.314 0.696,-0.647 1.058,-0.907 0.387,-0.22 0.739,-0.451 1.104,-0.617 0.391,-0.132 0.748,-0.252 1.064,-0.359 0.323,-0.102 0.543,-0.094 0.756,-0.138 0.41,-0.061 0.643,-0.095 0.643,-0.095 0.422,-0.062 0.8,0.2 0.9,0.65 0.1,0.45 -0.229,0.815 -0.649,0.9 C 15.571,120.3 15.5,120.3 15.5,120.311 Z"
             inkscape:connector-curvature="0"
             style="fill:#ce8163" /></g><g
           id="g4419"><path
             id="path4421"
             d="m 41.243,157.203 -10.271,3.227 9.785,-4.488 c 0.342,-0.155 0.743,-0.008 0.9,0.3 0.156,0.3 0,0.742 -0.334,0.898 -0.025,0.06 -0.023,0.06 -0.123,0.063 z"
             inkscape:connector-curvature="0"
             style="fill:#ce8163" /></g><g
           id="g4423"><path
             id="path4425"
             d="m 4.56,202.17 c 0,0 0.2,0.1 0.5,0.312 0.285,0.2 0.8,0.5 1.3,0.8 0.607,0.3 1.3,0.8 2.2,1.162 0.438,0.2 0.9,0.4 1.4,0.664 0.5,0.2 1,0.4 1.6,0.7 1.1,0.5 2.3,0.9 3.6,1.324 1.317,0.4 2.7,0.8 4.2,1.137 0.73,0.2 1.5,0.4 2.2,0.5 0.764,0.1 1.5,0.2 2.3,0.373 l 1.172,0.188 1.189,0.107 c 0.795,0.1 1.6,0.1 2.4,0.2 1.603,0.1 3.2,0.1 4.8,0.123 1.582,-0.09 3.139,-0.178 4.645,-0.262 1.498,-0.199 2.945,-0.393 4.318,-0.576 0.691,-0.072 1.349,-0.223 1.985,-0.365 0.638,-0.139 1.254,-0.271 1.846,-0.399 1.182,-0.269 2.28,-0.459 3.213,-0.781 0.943,-0.283 1.766,-0.533 2.443,-0.735 C 53.225,206.2 54,206 54,206 c 0,0 -0.766,0.264 -2.104,0.7 -0.67,0.23 -1.484,0.512 -2.418,0.834 -0.924,0.357 -2.016,0.594 -3.19,0.906 -0.59,0.152 -1.203,0.311 -1.839,0.5 -0.635,0.168 -1.291,0.347 -1.982,0.445 -1.377,0.238 -2.829,0.488 -4.331,0.748 -1.52,0.145 -3.09,0.293 -4.686,0.4 -1.604,0.018 -3.235,0.104 -4.866,0.062 -0.815,-0.043 -1.632,-0.086 -2.442,-0.127 l -1.219,-0.064 -1.201,-0.146 c -0.801,-0.098 -1.594,-0.193 -2.377,-0.291 -0.781,-0.113 -1.545,-0.281 -2.301,-0.418 -1.52,-0.246 -2.947,-0.668 -4.318,-1.004 -1.35,-0.406 -2.635,-0.781 -3.789,-1.221 -0.578,-0.217 -1.131,-0.426 -1.658,-0.625 -0.519,-0.223 -1.01,-0.436 -1.471,-0.635 -0.929,-0.392 -1.707,-0.81 -2.357,-1.129 -0.641,-0.349 -1.145,-0.617 -1.495,-0.836 -0.334,-0.205 -0.513,-0.316 -0.513,-0.316 L 4.56,202.17 Z"
             inkscape:connector-curvature="0"
             style="fill:#147c4a" /></g><g
           id="g4427"><polygon
             id="polygon4429"
             points="8.5,206.1 7.5,205.9 10,191 "
             style="fill:#147c4a" /></g><g
           id="g4431"><polygon
             id="polygon4433"
             points="15.5,208 14.5,208 16,193 "
             style="fill:#147c4a" /></g><g
           id="g4435"><polygon
             id="polygon4437"
             points="25,210 24,210 24.5,195 "
             style="fill:#147c4a" /></g><g
           id="g4439"><polygon
             id="polygon4441"
             points="32,210 31,210 31.5,195 "
             style="fill:#147c4a" /></g><g
           id="g4443"><polygon
             id="polygon4445"
             points="39.5,209 38.5,209 38,195 "
             style="fill:#147c4a" /></g><g
           id="g4447"><polygon
             id="polygon4449"
             points="47.5,207.9 46.5,208.1 45,194 "
             style="fill:#147c4a" /></g></g><g
         id="g4451"><path
           id="path4453"
           d="m 56.545,102.418 c -0.248,-0.332 -0.445,-0.555 -0.57,-0.617 -0.242,-0.121 -0.516,-0.211 -0.801,-0.281 0.463,0.28 0.926,0.58 1.326,0.898 z"
           inkscape:connector-curvature="0"
           style="fill:#e5a383" /><path
           id="path4455"
           d="m 31.545,183.932 c -6.086,0 -10.873,-2.301 -16.119,-4.635 0.076,0.4 0.1,0.6 0.1,0.6 0,0 -0.815,8.5 15,10 11.024,1.1 18,-7 22,-26 C 44.545,179.9 36.2,183.9 31.5,183.932 Z"
           inkscape:connector-curvature="0"
           style="fill:#e5a383" /></g></g></g><g
     id="g4457"><g
       id="g4459"><path
         id="path4461"
         d="M 255.571,50 233,50 l 0,58.57 c 0,3.6 3.9,7.4 7.4,7.43 l 5.891,0 -6.858,6.4 0.186,-0.275 c -0.02,0.007 -0.049,-0.105 -0.064,-0.1 -2.356,1.049 -2.356,3.871 -1.571,7.541 0.35,1.6 4.2,22.1 6,31.429 l 0.017,0 c 2.315,0 2.985,-2.592 2.985,-4.908 l 0,-9.625 0.416,0.006 0.271,-3.059 0.549,-1.611 c 0,0 3.316,-2.74 3.984,-3.408 1.312,-1.312 -0.213,-3.408 -0.213,-3.408 0,0 -4.01,-7.445 -7.01,-12.329 0,-0.331 0,-0.657 0,-0.657 l 10.569,0 c 3.552,0 5.431,-3.879 5.431,-7.43 l 0,-59.136 C 261,51.9 259.1,50 255.6,50 Z"
         enable-background="new    "
         inkscape:connector-curvature="0"
         style="opacity:0.3" /></g></g><g
     id="g4463"><g
       id="g4465"><path
         id="path4467"
         d="m 154,57.434 0,68.134 c 0,4.1 4.3,8.4 8.4,8.433 l 2.636,0 -6.331,-6 6.831,0 c 4.104,0 6.432,-4.328 6.432,-8.434 l 0,-68.133 c 0,-0.153 -0.024,-1.285 -0.031,-1.434 l -9.535,0 C 158.329,50 154,53.3 154,57.434 Z"
         enable-background="new    "
         inkscape:connector-curvature="0"
         style="opacity:0.3" /></g></g><g
     id="g4469"><path
       id="path4471"
       d="m 170,48.013 0,-38.54 c 0,-5.225 -4.113,-9.46 -9.34,-9.46 l -65.08,0 C 90.355,0.013 86,4.248 86,9.473 l 0,38.54 84,0 z"
       inkscape:connector-curvature="0"
       style="fill:#ffffff" /></g><path
     id="path4473"
     d="M 238,40.999 238,7.356 C 238,3.3 234.8,0 230.7,0 L 179.567,0 C 175.483,0 172,3.3 172,7.356 l 0,33.644 66,0 0,-10e-4 z"
     inkscape:connector-curvature="0"
     style="fill:#ffffff" /><rect
     y="27.44525"
     x="5.0677791"
     height="37.163712"
     width="69.822731"
     id="rect4481"
     style="fill:#ffffff;fill-opacity:1" /><rect
     y="71.929085"
     x="90.093849"
     height="33.222107"
     width="54.619396"
     id="rect4483"
     style="fill:#ffffff;fill-opacity:1" /><rect
     y="69.113655"
     x="177.37227"
     height="27.028154"
     width="48.988529"
     id="rect4485"
     style="fill:#ffffff;fill-opacity:1" /><rect
     y="30.823769"
     x="7.3201251"
     height="49.551617"
     width="57.997917"
     id="rect4487"
     style="fill:#ffffff;fill-opacity:1" /><text
     xml:space="preserve"
     style="font-style:normal;font-variant:normal;font-weight:bold;font-stretch:normal;font-size:17.5px;line-height:125%;font-family:sans-serif;-inkscape-font-specification:'sans-serif, Bold';text-align:start;letter-spacing:0px;word-spacing:0px;writing-mode:lr-tb;text-anchor:start;opacity:0.98999999;fill:#000000;fill-opacity:1;stroke:none;stroke-width:1px;stroke-linecap:butt;stroke-linejoin:miter;stroke-opacity:1"
     x="25.99287"
     y="46.667168"
     id="text5957"
     sodipodi:linespacing="125%"><tspan
       sodipodi:role="line"
       x="25.99287"
       y="46.667168"
       id="tspan5959"><tspan
         x="25.99287"
         y="46.667168"
         id="tspan5961"
         style="font-style:normal;font-variant:normal;font-weight:bold;font-stretch:normal;font-size:17.5px;line-height:125%;font-family:sans-serif;-inkscape-font-specification:'sans-serif, Bold';text-align:start;writing-mode:lr-tb;text-anchor:start">ÇA </tspan></tspan><tspan
       sodipodi:role="line"
       x="3.6051743"
       y="68.542168"
       id="tspan5963"><tspan
         x="3.6051743"
         id="tspan5965"
         style="font-style:normal;font-variant:normal;font-weight:bold;font-stretch:normal;font-size:17.5px;line-height:125%;font-family:sans-serif;-inkscape-font-specification:'sans-serif, Bold';text-align:start;writing-mode:lr-tb;text-anchor:start">DONNE</tspan></tspan></text>
<text
     xml:space="preserve"
     style="font-style:normal;font-variant:normal;font-weight:bold;font-stretch:normal;font-size:15px;line-height:125%;font-family:sans-serif;-inkscape-font-specification:'sans-serif, Bold';text-align:center;letter-spacing:0px;word-spacing:0px;writing-mode:lr-tb;text-anchor:middle;fill:#000000;fill-opacity:1;stroke:none;stroke-width:1px;stroke-linecap:butt;stroke-linejoin:miter;stroke-opacity:1"
     x="117.08246"
     y="82.935944"
     id="text5971"
     sodipodi:linespacing="125%"><tspan
       sodipodi:role="line"
       x="119.64594"
       y="82.935944"
       id="tspan5973"><tspan
         x="117.08246"
         y="82.935944"
         id="tspan5975">JE SAIS </tspan></tspan><tspan
       sodipodi:role="line"
       x="124.72894"
       y="101.68594"
       id="tspan5977"><tspan
         x="122.16547"
         id="tspan5979">PAS...  </tspan></tspan></text>
<flowRoot
     style="font-style:normal;font-variant:normal;font-weight:bold;font-stretch:normal;font-size:20px;line-height:125%;font-family:sans-serif;-inkscape-font-specification:'sans-serif, Bold';text-align:center;letter-spacing:0px;word-spacing:0px;writing-mode:lr-tb;text-anchor:middle;fill:#000000;fill-opacity:1;stroke:none;stroke-width:1px;stroke-linecap:butt;stroke-linejoin:miter;stroke-opacity:1"
     id="flowRoot4509"
     xml:space="preserve"><flowRegion
       id="flowRegion4511"><rect
         style="font-style:normal;font-variant:normal;font-weight:bold;font-stretch:normal;font-size:20px;line-height:125%;font-family:sans-serif;-inkscape-font-specification:'sans-serif, Bold';text-align:center;writing-mode:lr-tb;text-anchor:middle"
         y="53.347233"
         x="173.43066"
         height="51.803967"
         width="56.308655"
         id="rect4513" /></flowRegion><flowPara
       id="flowPara4517">C'EST MORT</flowPara></flowRoot><text
     sodipodi:linespacing="125%"
     id="text4519"
     y="-53.07613"
     x="-37.726799"
     style="font-style:normal;font-variant:normal;font-weight:bold;font-stretch:normal;font-size:20px;line-height:125%;font-family:sans-serif;-inkscape-font-specification:'sans-serif, Bold';text-align:center;letter-spacing:0px;word-spacing:0px;writing-mode:lr;text-anchor:middle;fill:#000000;fill-opacity:1;stroke:none;stroke-width:1px;stroke-linecap:butt;stroke-linejoin:miter;stroke-opacity:1;"
     xml:space="preserve"><tspan
       id="tspan4523"
       sodipodi:role="line" /><tspan
       id="tspan4525"
       sodipodi:role="line" /></text>
<text
     sodipodi:linespacing="125%"
     id="text4546"
     y="64.608963"
     x="-37.726799"
     style="font-style:normal;font-variant:normal;font-weight:bold;font-stretch:normal;font-size:20px;line-height:125%;font-family:sans-serif;-inkscape-font-specification:'sans-serif, Bold';text-align:center;letter-spacing:0px;word-spacing:0px;writing-mode:lr-tb;text-anchor:middle;fill:#000000;fill-opacity:1;stroke:none;stroke-width:1px;stroke-linecap:butt;stroke-linejoin:miter;stroke-opacity:1"
     xml:space="preserve"><tspan
       y="64.608963"
       x="-37.726799"
       id="tspan4548"
       sodipodi:role="line" /></text>
<text
     xml:space="preserve"
     style="font-style:normal;font-variant:normal;font-weight:bold;font-stretch:normal;font-size:17.5px;line-height:125%;font-family:sans-serif;-inkscape-font-specification:'sans-serif, Bold';text-align:start;letter-spacing:0px;word-spacing:0px;writing-mode:lr-tb;text-anchor:start;fill:#000000;fill-opacity:1;stroke:none;stroke-width:1px;stroke-linecap:butt;stroke-linejoin:miter;stroke-opacity:1"
     x="175.68359"
     y="72.568527"
     id="text6009"
     sodipodi:linespacing="125%"><tspan
       sodipodi:role="line"
       x="175.68359"
       y="72.568527"
       id="tspan6011"><tspan
         x="175.68359"
         y="72.568527"
         id="tspan6013">C'est </tspan></tspan><tspan
       sodipodi:role="line"
       x="175.68359"
       y="94.443527"
       id="tspan6015"><tspan
         x="175.68359"
         id="tspan6017">mort!</tspan></tspan></text>
</svg>