<svg xmlns="http://www.w3.org/2000/svg" xmlns:xlink="http://www.w3.org/1999/xlink" version="1.1" id="Capa_1" x="0px" y="0px" width="261.002px" height="260px" viewBox="0 0 261.002 260" enable-background="new 0 0 261.002 260" xml:space="preserve">
<g>
	<g>
		<path fill="#FFFFFF" d="M231.002 115.57c0 3.551-2.879 6.43-6.431 6.43h-44.141c-3.552 0-6.431-2.879-6.431-6.43V56.43 c0-3.551 2.879-6.43 6.431-6.43h44.141c3.552 0 6.4 2.9 6.4 6.43V115.57L231.002 115.57z"/>
		<g>
			<g>
				<path fill="#000333" d="M189.299 91.055h-7.738V73.378h6.879c1.197 0 2.2 0.1 3.1 0.4 c0.868 0.3 1.5 0.7 2 1.163c0.791 0.9 1.2 1.9 1.2 3.086c0 1.384-0.447 2.41-1.341 3.1 c-0.305 0.236-0.516 0.385-0.633 0.442c-0.119 0.059-0.328 0.156-0.633 0.291c1.096 0.2 2 0.7 2.6 1.5 c0.649 0.8 1 1.7 1 2.796c0 1.229-0.422 2.317-1.266 3.263C193.43 90.5 191.7 91.1 189.3 91.055z M185.506 80.535h1.871c1.096 0 1.907-0.119 2.438-0.354c0.53-0.235 0.797-0.746 0.797-1.529s-0.244-1.304-0.731-1.556 c-0.489-0.254-1.315-0.38-2.479-0.38h-1.896V80.535z M185.506 87.717h2.705c1.129 0 1.977-0.139 2.541-0.418 c0.564-0.276 0.848-0.825 0.848-1.644c0-0.817-0.299-1.356-0.896-1.618c-0.6-0.262-1.556-0.395-2.871-0.395h-2.326V87.717 L185.506 87.717z"/>
				<path fill="#000333" d="M198.983 73.378h3.943v17.677h-3.943V73.378z"/>
				<path fill="#000333" d="M220.783 75.692c1.687 1.5 2.5 3.7 2.5 6.437s-0.822 4.923-2.47 6.5 c-1.643 1.602-4.147 2.401-7.521 2.401h-6.043V73.378h6.246C216.678 73.4 219.1 74.1 220.8 75.692z M217.889 86.2 c0.969-0.91 1.453-2.234 1.453-3.972c0-1.736-0.484-3.071-1.453-4.008c-0.971-0.936-2.459-1.403-4.465-1.403h-2.199v10.748 h2.504C215.531 87.6 216.9 87.1 217.9 86.199z"/>
			</g>
		</g>
		<g>
			<g>
				<path id="XMLID_37_" fill="#CA1E1F" d="M214.106 215.444c0 6.381-5.174 11.556-11.555 11.556h-16.315 c-6.381 0-11.555-5.175-11.555-11.556l2.719-35.117c0-6.383 5.174-11.327 11.556-11.327h10.877 c6.381 0 11.6 4.9 11.6 11.327L214.106 215.444z"/>
			</g>
			<g>
				<g>
					<defs>
						<path id="SVGID_1_" d="M214.106 215.444c0 6.381-5.174 11.556-11.555 11.556h-16.315c-6.381 0-11.555-5.175-11.555-11.556 l2.719-35.117c0-6.383 5.174-11.327 11.556-11.327h10.877c6.381 0 11.6 4.9 11.6 11.327L214.106 215.444z"/>
					</defs>
					<clipPath id="SVGID_2_">
						<use xlink:href="#SVGID_1_" overflow="visible"/>
					</clipPath>
					<ellipse clip-path="url(#SVGID_2_)" fill="#99070E" cx="194.4" cy="174.7" rx="15" ry="5.4"/>
				</g>
			</g>
		</g>
		<g>
			<g>
				<path id="XMLID_36_" fill="#E5A383" d="M179.463 128.905l18.809-18.938c0 0 1.406-1.571 2.979-1.571 c1.574 0 2.4 0.3 2.4 0.262l10.916 7.186c0 0 0.4 1 0.4 1.574c0 0.5 0 6.5 0 6.506L179.463 128.905z"/>
			</g>
		</g>
		<g>
			<path fill="#B56D57" d="M202.025 121.632l0.632-5.05l0.417 5.072c0.024 0.29-0.19 0.545-0.481 0.6 c-0.289 0.023-0.545-0.19-0.567-0.481C202.022 121.7 202 121.7 202 121.632z"/>
		</g>
		<path fill="#FCBD9A" d="M184.877 172.622c0 0-6.414-33.999-6.867-36.113c-0.785-3.67-0.785-6.555 1.574-7.604 c2.032-0.903 29.891-9.652 29.891-9.652s1.836-0.263 2.9 0.263c1.049 0.5 9.2 16.5 9.2 16.471s1.049 2.098-0.262 3.4 c-0.668 0.667-3.934 3.407-3.934 3.407l-4.457 15.994l-1.836 1.312l-5.506 12.848c0 0-2.055 7.285-10.47 6.5 C184.322 178.4 184.9 172.6 184.9 172.622z"/>
		<g>
			<path fill="#CE8163" d="M191.906 131c0 0 9.8 0.3 19.6 0.424c0.612 0 1.2 0.1 1.8 0.1 c0.638 0.1 1.3 0.3 1.8 0.58c1.102 0.6 1.8 1.8 2 2.942c0.1 0.6 0 1.2 0 1.7 c-0.019 0.551-0.035 1.094-0.054 1.618c-0.032 1.053-0.063 2.049-0.094 2.965c-0.115 3.668-0.193 6.113-0.193 6.1 s0.029-2.445 0.072-6.113c0.012-0.918 0.021-1.912 0.035-2.965c0.008-0.524 0.014-1.063 0.021-1.616 c0.002-0.556 0.047-1.117-0.066-1.66c-0.189-1.1-0.908-2.119-1.93-2.657c-0.507-0.276-1.078-0.419-1.654-0.448 c-0.59-0.02-1.215 0.01-1.822 0.016c-9.785 0.146-19.571 0.291-19.571 0.291c-0.29 0.004-0.528-0.36-0.532-0.649 c-0.004-0.291 0.228-0.666 0.518-0.666C191.897 131 191.9 131 191.9 131z"/>
		</g>
		<g>
			<path fill="#FCBD9A" d="M195.002 141h18.012c2.316 0 4 2 4 4.293v11.799c0 2.315-1.672 4.908-3.988 4.908h-6.012"/>
			<path fill="#CE8163" d="M194.792 141c0 0 3.1 0 7.7 0.065c2.303 0 5 0 7.9 0.1 c0.719 0 1.4 0 2.2 0.021c0.194 0 0.344-0.004 0.6 0.011l0.56 0.052c0.18 0 0.4 0.1 0.6 0.1 c0.196 0.1 0.4 0.1 0.6 0.198c0.771 0.3 1.4 0.9 1.8 1.667c0.213 0.4 0.3 0.8 0.4 1.2 c0.037 0.4 0.1 0.8 0.1 1.195c-0.033 3.068-0.063 6.14-0.096 9.017c-0.062 1.4 0.1 2.838-0.299 4.2 c-0.395 1.289-1.316 2.348-2.424 2.763l-0.41 0.149l-0.426 0.05c-0.279 0.042-0.551 0.055-0.812 0 c-0.523-0.006-1.021-0.01-1.488-0.016c-0.936-0.011-1.752-0.02-2.422-0.025c-1.344-0.014-2.111-0.022-2.111-0.022 s0.769-0.008 2.111-0.021c0.67-0.008 1.486-0.018 2.422-0.025c0.922-0.055 2 0.1 3.076-0.279 c1.043-0.416 1.9-1.441 2.25-2.681c0.363-1.229 0.174-2.66 0.201-4.09c-0.031-2.877-0.064-5.946-0.098-9.017 c0.076-1.485-0.631-2.946-1.953-3.453c-0.15-0.094-0.322-0.1-0.48-0.15c-0.162-0.042-0.312-0.098-0.51-0.098l-0.561-0.041 c-0.131-0.006-0.355 0.003-0.527 0.003c-0.74 0.008-1.473 0.016-2.191 0.021c-2.877 0.03-5.562 0.062-7.865 0.1 c-4.604 0.049-7.674 0.081-7.674 0.081c-0.289 0.003-0.525-0.213-0.528-0.502c-0.005-0.29 0.228-0.514 0.518-0.514 C194.782 141 194.8 141 194.8 141z"/>
		</g>
		<g>
			<path fill="#CE8163" d="M209.736 154c0 0-1.319 0.134-3.299 0.081c-0.492-0.006-1.062 0.025-1.527 0.1 c-0.495 0.069-1.015 0.322-1.471 0.65c-0.931 0.647-1.54 1.872-1.438 3.141c0.055 0.6 0.3 1.2 0.6 1.7 c0.346 0.5 0.8 0.9 1.4 1.204c0.53 0.3 1.1 0.4 1.7 0.413c0.565 0 1.1 0 1.6 0 c1.979 0 3.3 0.1 3.3 0.062s-1.32 0.023-3.299 0.061c-0.496 0.012-1.031 0.021-1.6 0 c-0.576 0.022-1.203-0.076-1.785-0.344c-1.187-0.509-2.146-1.716-2.32-3.144c-0.08-0.673 0.005-1.412 0.273-2.057 c0.271-0.645 0.694-1.221 1.227-1.639c0.527-0.422 1.133-0.711 1.756-0.834c0.65-0.127 1.166-0.09 1.662-0.115 c1.979-0.053 3.299-0.088 3.299-0.088c0.291-0.008 0.5 0.1 0.5 0.341c0.008 0.289-0.221 0.369-0.51 0.4 C209.756 154 209.7 154 209.7 154z"/>
		</g>
		<g>
			<path fill="#CE8163" d="M208.842 131.156l2.729-1.988l-1.989 2.73c-0.173 0.235-0.504 0.287-0.74 0.114s-0.289-0.505-0.117-0.739 C208.758 131.2 208.8 131.2 208.8 131.156z"/>
		</g>
		<g>
			<path fill="#CE8163" d="M209.574 153.459l2.521-1.479l-1.936 2.189c-0.17 0.191-0.465 0.211-0.658 0 c-0.19-0.171-0.211-0.465-0.041-0.658C209.495 153.5 209.5 153.5 209.6 153.459z"/>
		</g>
		<g>
			<path fill="#CE8163" d="M204.033 154.491l-5.31-3.037l5.701 2.207c0.238 0.1 0.4 0.4 0.3 0.6 c-0.092 0.238-0.358 0.354-0.599 0.265C204.074 154.5 204.1 154.5 204 154.491z"/>
		</g>
		<g>
			<path fill="#CE8163" d="M186.385 142.013c0 0-0.16 0.008-0.439 0.021c-0.132 0.014-0.331-0.004-0.486 0 c-0.158 0.039-0.338 0.082-0.533 0.127c-0.195 0.066-0.404 0.181-0.635 0.275c-0.215 0.122-0.418 0.289-0.646 0.4 c-0.173 0.208-0.405 0.389-0.556 0.637c-0.146 0.249-0.334 0.49-0.412 0.782l-0.156 0.424l-0.066 0.4 c-0.059 0.29-0.068 0.604-0.082 0.905c-0.031 0.602-0.061 1.162-0.084 1.643c-0.051 0.961-0.082 1.604-0.082 1.6 s-0.033-0.643-0.082-1.604c-0.023-0.479-0.055-1.041-0.084-1.643c-0.018-0.301-0.039-0.605-0.012-0.941l0.026-0.503l0.124-0.493 c0.059-0.343 0.236-0.641 0.382-0.948c0.149-0.308 0.392-0.551 0.581-0.817c0.242-0.215 0.475-0.441 0.719-0.616 c0.264-0.149 0.504-0.308 0.75-0.421c0.266-0.09 0.508-0.172 0.725-0.243c0.221-0.07 0.369-0.063 0.516-0.095 c0.275-0.041 0.438-0.063 0.438-0.063c0.285-0.042 0.6 0.2 0.6 0.442c0.041 0.287-0.156 0.554-0.443 0.6 C186.422 142 186.4 142 186.4 142.013z"/>
		</g>
		<g>
			<path fill="#CE8163" d="M184.551 132.05c0 0-0.161 0.007-0.441 0.021c-0.131 0.014-0.33-0.004-0.486 0 c-0.158 0.035-0.338 0.08-0.533 0.127c-0.194 0.065-0.404 0.18-0.635 0.273c-0.215 0.122-0.418 0.289-0.645 0.4 c-0.174 0.208-0.406 0.39-0.557 0.637c-0.146 0.25-0.334 0.49-0.412 0.782l-0.156 0.424l-0.066 0.4 c-0.059 0.289-0.068 0.604-0.082 0.904c-0.031 0.602-0.061 1.16-0.084 1.643c-0.05 0.962-0.082 1.604-0.082 1.6 s-0.033-0.642-0.082-1.604c-0.023-0.48-0.054-1.041-0.084-1.643c-0.017-0.301-0.039-0.605-0.012-0.941l0.027-0.502l0.123-0.494 c0.06-0.342 0.236-0.641 0.383-0.948c0.148-0.307 0.391-0.55 0.581-0.817c0.243-0.217 0.474-0.44 0.72-0.616 c0.262-0.149 0.502-0.31 0.748-0.421c0.266-0.09 0.51-0.172 0.725-0.243c0.219-0.069 0.369-0.064 0.516-0.095 c0.275-0.041 0.438-0.062 0.438-0.062c0.286-0.043 0.6 0.2 0.6 0.441c0.043 0.287-0.155 0.555-0.442 0.6 C184.586 132 184.6 132 184.6 132.05z"/>
		</g>
		<g>
			<path fill="#CE8163" d="M202.035 157.128l-6.981 2.191l6.652-3.053c0.23-0.104 0.506-0.004 0.6 0.2 c0.105 0.2 0 0.505-0.229 0.61C202.071 157.1 202.1 157.1 202 157.128z"/>
		</g>
		<path fill="none" stroke="#99070E" stroke-miterlimit="10" d="M176.721 188.256c0 0 10.9 8.8 30.6 2.7"/>
		<g>
			<polygon fill="#147C4A" points="179.1,190.2 180.8,180.1 179.8,190.3"/>
		</g>
		<line fill="none" stroke="#99070E" stroke-miterlimit="10" x1="184.2" y1="191.7" x2="184.9" y2="181.5"/>
		<line fill="none" stroke="#99070E" stroke-miterlimit="10" x1="190.5" y1="193" x2="190.5" y2="183"/>
		<line fill="none" stroke="#99070E" stroke-miterlimit="10" x1="194.5" y1="193" x2="194.5" y2="183"/>
		<line fill="none" stroke="#99070E" stroke-miterlimit="10" x1="200.5" y1="192.3" x2="199.8" y2="182.8"/>
		<line fill="none" stroke="#99070E" stroke-miterlimit="10" x1="205.9" y1="191.7" x2="204.6" y2="182.1"/>
		<path fill="#E5A383" d="M195.442 175.103c-3.986 0-7.123-1.508-10.561-3.035c0.051 0.3 0.1 0.4 0.1 0.4 s-0.533 5.5 9.8 6.551c7.224 0.7 11.794-4.586 14.412-17.032C203.959 172.5 198.5 175.1 195.4 175.103z"/>
	</g>
</g>
<g>
	<g>
		<path fill="#FFFFFF" d="M152 57.434c0-4.105-3.328-7.434-7.436-7.434H93.434C89.328 50 86 53.3 86 57.434v68.133 c0 4.1 3.3 7.4 7.4 7.433h51.135c4.104 0 7.432-3.328 7.432-7.433V57.434L152 57.434z"/>
		<g>
			<g>
				<path id="XMLID_35_" fill="#E59B1A" d="M105.643 240.713c0 7.4 6 13.3 13.4 13.285h18.856 c7.377 0 13.355-5.908 13.355-13.285l-3.143-40.604c0-7.377-5.98-13.107-13.357-13.107h-12.57 c-7.377 0-13.354 5.73-13.354 13.107L105.643 240.713z"/>
			</g>
			<g>
				<g>
					<defs>
						<path id="SVGID_3_" d="M105.643 240.713c0 7.4 6 13.3 13.4 13.285h18.856c7.377 0 13.355-5.908 13.355-13.285 l-3.143-40.604c0-7.377-5.98-13.107-13.357-13.107h-12.57c-7.377 0-13.354 5.73-13.354 13.107L105.643 240.713z"/>
					</defs>
					<clipPath id="SVGID_4_">
						<use xlink:href="#SVGID_3_" overflow="visible"/>
					</clipPath>
					<ellipse clip-path="url(#SVGID_4_)" fill="#BF7C10" cx="128.4" cy="193.6" rx="17.3" ry="6.3"/>
				</g>
			</g>
		</g>
		<g>
			<g>
				<path id="XMLID_34_" fill="#E5A383" d="M145.383 140.752l-21.588-21.889c0 0-1.549-1.818-3.367-1.818s-2.746 0.303-2.746 0.3 l-12.902 8.307c0 0-0.777 1.213-0.777 1.819c0 0.6 0 7.5 0 7.52L145.383 140.752z"/>
			</g>
		</g>
		<g>
			<path fill="#B56D57" d="M118.395 132.369l0.482-5.861l0.729 5.835c0.041 0.334-0.193 0.639-0.527 0.7 c-0.334 0.041-0.641-0.195-0.682-0.529C118.393 132.5 118.4 132.4 118.4 132.369z"/>
		</g>
		<path fill="#FCBD9A" d="M139.43 191.285c0 0 7.414-39.301 7.938-41.744c0.908-4.242 0.908-7.576-1.818-8.789 c-2.35-1.045-34.551-11.158-34.551-11.158s-2.121-0.303-3.334 0.307c-1.213 0.604-10.606 19.037-10.606 19 s-1.213 2.4 0.3 3.938c0.772 0.8 4.5 3.9 4.5 3.939l5.151 18.486l2.121 1.518l6.364 14.85c0 0 2.4 8.4 12.1 7.5 C140.067 197.9 139.4 191.3 139.4 191.285z"/>
		<g>
			<path fill="#CE8163" d="M131.303 145c0 0-11.311-0.32-22.624-0.49c-0.701-0.004-1.426-0.111-2.105-0.094 c-0.666 0.035-1.328 0.16-1.914 0.48c-1.18 0.621-2.012 1.783-2.229 3.053c-0.131 0.629-0.078 1.27-0.078 1.9 c0.008 0.6 0 1.3 0 1.865c0.014 1.2 0 2.4 0 3.422c0.049 4.2 0.1 7.1 0.1 7.1 s-0.09-2.828-0.228-7.066c-0.03-1.061-0.067-2.209-0.106-3.424c-0.021-0.607-0.039-1.23-0.06-1.869 c-0.012-0.631-0.082-1.295 0.033-1.977c0.19-1.352 1.045-2.664 2.317-3.385c0.627-0.367 1.354-0.574 2.09-0.631 c0.728-0.043 1.418-0.031 2.13-0.049c11.312-0.168 22.623-0.336 22.623-0.336c0.336-0.006 0.6 0.4 0.6 0.8 c0.006 0.338-0.264 0.77-0.598 0.77C131.313 145 131.3 145 131.3 145z"/>
		</g>
		<g>
			<path fill="#FCBD9A" d="M128 155h-21.097c-2.678 0-3.903 2.018-3.903 4.693v13.639c0 2.7 1.2 5.7 3.9 5.666H114"/>
			<path fill="#CE8163" d="M127.969 156c0 0-3.549-0.086-8.872-0.143c-2.662-0.027-5.766-0.084-9.094-0.119 c-0.832-0.01-1.678-0.031-2.533-0.039c-0.199 0-0.461-0.018-0.611-0.008l-0.645 0.043c-0.23 0-0.404 0.062-0.59 0.1 c-0.187 0.061-0.383 0.066-0.558 0.176c-1.528 0.586-2.346 2.273-2.256 3.992c-0.037 3.551-0.076 7.098-0.108 10.4 c-0.011 0.832-0.021 1.648-0.027 2.447c-0.025 0.8 0 1.6 0.3 2.275c0.414 1.4 1.4 2.6 2.6 3.1 c0.605 0.3 1.2 0.3 1.8 0.279c0.605 0 1.2 0 1.7 0.018c1.082 0 2 0 2.8 0 c1.553 0 2.4 0 2.4 0.023s-0.889 0.01-2.438 0.025c-0.774 0.008-1.72 0.018-2.802 0 c-0.54 0.006-1.114 0.012-1.723 0.02c-0.598 0.021-1.274 0.004-1.912-0.254c-1.285-0.49-2.33-1.729-2.793-3.211 c-0.244-0.742-0.328-1.559-0.317-2.357c-0.009-0.801-0.019-1.615-0.025-2.447c-0.034-3.326-0.071-6.877-0.11-10.424 c-0.019-0.436 0.041-0.928 0.084-1.385c0.117-0.459 0.207-0.926 0.453-1.344c0.432-0.838 1.147-1.588 2.043-1.93 c0.201-0.127 0.453-0.156 0.682-0.23c0.232-0.061 0.475-0.139 0.682-0.143l0.646-0.061c0.279-0.018 0.447-0.008 0.676-0.014 c0.855-0.01 1.701-0.02 2.533-0.027c3.326-0.035 6.432-0.068 9.094-0.098c5.322-0.059 8.872-0.094 8.872-0.094 c0.334-0.006 0.6 0.3 0.6 0.645c0.004 0.336-0.268 0.66-0.602 0.66C127.979 156 128 156 128 156z"/>
		</g>
		<g>
			<path fill="#CE8163" d="M110.692 169c0 0 1.5 0 3.8 0.07c0.572 0 1.168-0.029 1.9 0.1 c0.719 0.1 1.4 0.5 2 0.957c0.611 0.5 1.1 1.1 1.4 1.889c0.312 0.7 0.4 1.6 0.3 2.4 c-0.205 1.65-1.312 3.045-2.684 3.633c-0.674 0.311-1.398 0.424-2.064 0.396c-0.654-0.014-1.273-0.023-1.848-0.035 c-2.287-0.041-3.812-0.07-3.812-0.07s1.525-0.025 3.812-0.066c0.572-0.014 1.193-0.021 1.848-0.033 c0.646-0.008 1.314-0.154 1.93-0.479c0.615-0.311 1.162-0.793 1.562-1.385c0.407-0.582 0.639-1.311 0.7-1.992 c0.046-0.738-0.084-1.438-0.385-2.07c-0.305-0.621-0.746-1.158-1.281-1.531c-0.524-0.381-1.125-0.623-1.698-0.703 c-0.541-0.088-1.194-0.025-1.765-0.021c-2.289 0.062-3.813 0.104-3.813 0.104c-0.334 0.008-0.61-0.227-0.623-0.561 c-0.008-0.336 0.259-0.592 0.593-0.592C110.672 169 110.7 169 110.7 169z"/>
		</g>
		<g>
			<path fill="#CE8163" d="M110.871 144.211l-2.302-3.154l3.156 2.301c0.274 0.2 0.3 0.6 0.1 0.9 c-0.196 0.273-0.582 0.334-0.854 0.137C110.953 144.3 110.9 144.3 110.9 144.211z"/>
		</g>
		<g>
			<path fill="#CE8163" d="M110.205 169.955l-2.238-2.531l2.914 1.711c0.256 0.1 0.3 0.5 0.2 0.7 c-0.147 0.256-0.479 0.342-0.733 0.191C110.285 170 110.2 170 110.2 169.955z"/>
		</g>
		<g>
			<path fill="#CE8163" d="M116.83 169.367l6.594-2.551l-6.137 3.512c-0.257 0.146-0.582 0.057-0.729-0.199s-0.06-0.58 0.196-0.727 C116.778 169.4 116.8 169.4 116.8 169.367z"/>
		</g>
		<g>
			<path fill="#CE8163" d="M137.801 154.695c0 0 0.2 0 0.5 0.074c0.166 0 0.3 0 0.6 0.1 c0.248 0.1 0.5 0.2 0.8 0.281c0.285 0.1 0.6 0.3 0.9 0.486c0.283 0.2 0.6 0.5 0.8 0.7 c0.221 0.3 0.5 0.6 0.7 0.941c0.168 0.4 0.4 0.7 0.4 1.1l0.145 0.568l0.029 0.6 c0.033 0.4 0 0.742-0.012 1.092c-0.035 0.693-0.068 1.344-0.1 1.896c-0.057 1.111-0.096 1.854-0.096 1.9 s-0.037-0.74-0.094-1.854c-0.029-0.557-0.062-1.203-0.098-1.896c-0.018-0.35-0.027-0.711-0.096-1.049l-0.078-0.516l-0.182-0.49 c-0.088-0.338-0.307-0.613-0.475-0.902c-0.178-0.285-0.443-0.494-0.646-0.734c-0.262-0.182-0.496-0.373-0.744-0.516 c-0.266-0.109-0.508-0.24-0.732-0.318c-0.229-0.055-0.436-0.105-0.617-0.146c-0.178-0.049-0.408-0.027-0.562-0.045 c-0.322-0.014-0.51-0.021-0.51-0.021c-0.336-0.016-0.596-0.297-0.58-0.633c0.018-0.334 0.297-0.594 0.633-0.58 C137.76 154.7 137.8 154.7 137.8 154.695z"/>
		</g>
		<g>
			<path fill="#CE8163" d="M139.922 143.182c0 0 0.2 0 0.5 0.072c0.166 0 0.3 0 0.6 0.1 c0.248 0.1 0.5 0.2 0.8 0.281c0.283 0.1 0.6 0.3 0.9 0.484c0.283 0.2 0.6 0.5 0.8 0.7 c0.219 0.3 0.5 0.6 0.7 0.945c0.166 0.4 0.4 0.7 0.4 1.096l0.145 0.572l0.031 0.6 c0.031 0.4 0 0.742-0.014 1.09c-0.035 0.693-0.068 1.342-0.1 1.896c-0.057 1.109-0.094 1.854-0.094 1.9 s-0.039-0.742-0.096-1.854c-0.029-0.557-0.062-1.203-0.098-1.896c-0.016-0.348-0.027-0.713-0.096-1.047l-0.078-0.516l-0.18-0.49 c-0.09-0.338-0.311-0.615-0.479-0.904c-0.176-0.287-0.441-0.496-0.645-0.736c-0.26-0.18-0.496-0.373-0.744-0.516 c-0.266-0.109-0.508-0.24-0.73-0.318c-0.23-0.053-0.438-0.104-0.617-0.145c-0.184-0.049-0.41-0.029-0.562-0.045 c-0.324-0.016-0.51-0.021-0.51-0.021c-0.334-0.016-0.596-0.299-0.58-0.633c0.014-0.336 0.297-0.596 0.633-0.58 C139.881 143.2 139.9 143.2 139.9 143.182z"/>
		</g>
		<g>
			<path fill="#CE8163" d="M119.977 172.381l7.69 3.527l-8.071-2.535c-0.281-0.088-0.438-0.387-0.35-0.668 c0.088-0.279 0.387-0.438 0.668-0.348C119.936 172.4 120 172.4 120 172.381z"/>
		</g>
		<path fill="none" stroke="#BF7C10" stroke-miterlimit="10" d="M148.856 209.355c0 0-12.568 10.215-35.356 3.1"/>
		<g>
			<polygon fill="#147C4A" points="145.3,211.8 144.1,199.9 146.1,211.7"/>
		</g>
		<g>
			<polygon fill="#147C4A" points="139.8,213.3 139.4,201.5 140.6,213.3"/>
		</g>
		<g>
			<polygon fill="#147C4A" points="132.4,215 132.8,203.2 133.1,215"/>
		</g>
		<line fill="none" stroke="#BF7C10" stroke-miterlimit="10" x1="126.5" y1="215" x2="126.5" y2="203"/>
		<line fill="none" stroke="#BF7C10" stroke-miterlimit="10" x1="121.4" y1="214.1" x2="122.1" y2="203.1"/>
		<line fill="none" stroke="#BF7C10" stroke-miterlimit="10" x1="115.1" y1="213.3" x2="116.6" y2="202.3"/>
		<path fill="#E5A383" d="M126.771 194.172c4.617 0 8.248-1.746 12.23-3.516c-0.061 0.311-0.09 0.48-0.09 0.5 s0.615 6.416-11.383 7.586c-8.364 0.816-13.655-5.311-16.69-19.725C116.908 191.1 123.3 194.2 126.8 194.172z"/>
	</g>
	<g>
		<path fill="#000333" d="M104.459 97h-8.945V76.566h7.951c1.385 0 2.6 0.2 3.6 0.497c1.004 0.3 1.8 0.8 2.3 1.3 c0.916 1.1 1.4 2.2 1.4 3.565c0 1.599-0.516 2.787-1.549 3.566c-0.352 0.273-0.596 0.443-0.73 0.5 c-0.135 0.069-0.381 0.181-0.73 0.336c1.269 0.3 2.3 0.8 3 1.71c0.75 0.9 1.1 1.9 1.1 3.2 c0 1.423-0.488 2.68-1.465 3.771C109.231 96.4 107.3 97 104.5 97z M100.074 84.84h2.161c1.269 0 2.207-0.137 2.822-0.41 c0.612-0.271 0.92-0.86 0.92-1.768c0-0.908-0.283-1.506-0.849-1.799c-0.563-0.292-1.521-0.438-2.864-0.438h-2.19V84.84z M100.074 93.141h3.129c1.305 0 2.282-0.159 2.938-0.48c0.652-0.321 0.979-0.954 0.979-1.9c0-0.943-0.346-1.567-1.037-1.87 c-0.69-0.303-1.799-0.453-3.317-0.453h-2.688v4.704L100.074 93.141L100.074 93.141z"/>
		<path fill="#000333" d="M115.653 76.566h4.562V97h-4.562V76.566z"/>
		<path fill="#000333" d="M140.854 79.241c1.947 1.8 2.9 4.3 2.9 7.439c0 3.177-0.947 5.689-2.85 7.5 c-1.9 1.853-4.799 2.778-8.697 2.778h-6.985V76.566h7.221C136.106 76.6 138.9 77.5 140.9 79.241z M137.506 91.4 c1.121-1.052 1.682-2.582 1.682-4.589c0-2.007-0.561-3.552-1.682-4.634c-1.121-1.081-2.84-1.622-5.16-1.622h-2.543v12.424h2.896 C134.78 93 136.4 92.4 137.5 91.387z"/>
	</g>
</g>
<g>
	<g>
		<g>
			<path fill="#FFFFFF" d="M84 95.54c0 5.225-4.234 9.46-9.46 9.46H9.46C4.235 105 0 100.8 0 95.54V9.46C0 4.2 4.2 0 9.5 0 h65.08C79.766 0 84 4.2 84 9.46V95.54z"/>
			<g>
				<g>
					<path fill="#000333" d="M22.506 60H11.121V33.994H21.24c1.761 0 3.3 0.2 4.6 0.632c1.276 0.4 2.2 1 2.9 1.7 c1.164 1.3 1.7 2.9 1.7 4.539c0 2.034-0.658 3.547-1.973 4.539c-0.445 0.348-0.757 0.564-0.932 0.7 c-0.174 0.088-0.482 0.229-0.93 0.429c1.611 0.3 2.9 1.1 3.9 2.176c0.953 1.1 1.4 2.5 1.4 4.1 c0 1.811-0.621 3.411-1.86 4.8C28.582 59.2 26.1 60 22.5 60z M16.924 44.522h2.755c1.61 0 2.809-0.174 3.59-0.521 c0.78-0.347 1.172-1.098 1.172-2.251s-0.359-1.916-1.078-2.288c-0.721-0.372-1.937-0.558-3.646-0.558h-2.791L16.924 44.5 L16.924 44.522z M16.924 55.089h3.981c1.66 0 2.906-0.204 3.738-0.614c0.83-0.408 1.246-1.215 1.246-2.418 c0-1.201-0.439-1.996-1.32-2.381c-0.881-0.385-2.289-0.577-4.223-0.577h-3.424L16.924 55.089L16.924 55.089z"/>
					<path fill="#000333" d="M36.754 33.994h5.806V60h-5.806V33.994z"/>
					<path fill="#000333" d="M68.824 37.398c2.48 2.3 3.7 5.4 3.7 9.469s-1.209 7.242-3.627 9.6 C66.499 58.8 62.8 60 57.9 60h-8.893V33.994h9.189C62.784 34 66.3 35.1 68.8 37.398z M64.564 52.9 c1.426-1.34 2.139-3.286 2.139-5.842c0-2.555-0.713-4.521-2.139-5.896c-1.428-1.376-3.615-2.064-6.566-2.064h-3.236v15.812 h3.684C61.098 54.9 63.1 54.2 64.6 52.856z"/>
				</g>
			</g>
			<g>
				<g>
					<path id="XMLID_45_" fill="#22B573" d="M59 243c0 9.389-7.611 17-17 17H18c-9.39 0-17-7.611-17-17l4-52c0-9.389 7.61-17 17-17 h16c9.389 0 17 7.6 17 17L59 243z"/>
				</g>
				<g>
					<g>
						<defs>
							<path id="SVGID_5_" d="M59 243c0 9.389-7.611 17-17 17H18c-9.39 0-17-7.611-17-17l4-52c0-9.389 7.61-17 17-17h16 c9.389 0 17 7.6 17 17L59 243z"/>
						</defs>
						<clipPath id="SVGID_6_">
							<use xlink:href="#SVGID_5_" overflow="visible"/>
						</clipPath>
						<ellipse clip-path="url(#SVGID_6_)" fill="#147C4A" cx="30" cy="183" rx="22" ry="8"/>
					</g>
				</g>
			</g>
			<g>
				<g>
					<path id="XMLID_44_" fill="#E5A383" d="M8.376 115.685l27.498-27.857c0 0 1.984-2.314 4.299-2.314s3.5 0.4 3.5 0.4 l16.378 10.57c0 0 0.9 1.5 0.9 2.314s0 9.6 0 9.572L8.376 115.685z"/>
				</g>
			</g>
			<g>
				<path fill="#B56D57" d="M41.229 104.984l0.929-7.431l0.614 7.461c0.035 0.429-0.282 0.804-0.711 0.8 c-0.427 0.035-0.801-0.282-0.836-0.71C41.222 105.1 41.2 105 41.2 104.984z"/>
			</g>
			<path fill="#FCBD9A" d="M16 180c0 0-9.437-50.018-10.103-53.129c-1.157-5.4-1.157-9.645 2.314-11.188 c2.99-1.328 43.974-14.199 43.974-14.199s2.701-0.388 4.2 0.385c1.543 0.8 13.5 24.2 13.5 24.23s1.543 3.086-0.386 5 c-0.983 0.982-5.786 5.014-5.786 5.014L57.2 159.658l-2.7 1.93l-8.1 18.9c0 0-3.021 10.719-15.4 9.5 C15.185 188.5 16 180 16 180z"/>
			<g>
				<path fill="#CE8163" d="M26.342 119c0 0 14.4 0.3 28.8 0.506c0.905 0 1.8 0 2.7 0.1 c0.937 0.1 1.9 0.4 2.7 0.822c1.62 0.9 2.7 2.6 3 4.318c0.146 0.9 0.1 1.7 0 2.5 c-0.024 0.812-0.051 1.607-0.075 2.381c-0.05 1.546-0.096 3.01-0.139 4.357c-0.172 5.396-0.285 8.992-0.285 9 s0.043-3.598 0.107-8.996c0.016-1.35 0.033-2.811 0.052-4.357c0.009-0.771 0.019-1.566 0.028-2.379 c0-0.816 0.066-1.645-0.099-2.443c-0.278-1.616-1.338-3.118-2.839-3.911c-0.744-0.406-1.588-0.616-2.436-0.659 c-0.867-0.026-1.789 0.016-2.682 0.021c-14.396 0.214-28.793 0.428-28.793 0.428c-0.426 0.006-0.776-0.412-0.782-0.838 c-0.007-0.426 0.334-0.861 0.76-0.861C26.325 119 26.3 119 26.3 119z"/>
			</g>
			<g>
				<path fill="#FCBD9A" d="M31 134h26.395c3.408 0 5.6 2.4 5.6 5.793v17.357c0 3.408-2.197 6.85-5.605 6.85H48"/>
				<path fill="#CE8163" d="M30.585 133c0 0 4.5 0.3 11.3 0.336c3.388 0 7.3 0.2 11.6 0.2 c1.059 0 2.1 0.1 3.2 0.088c0.291 0 0.5 0 0.9 0.045l0.819 0.09c0.266 0 0.6 0.1 0.9 0.2 c0.289 0.1 0.6 0.1 0.9 0.297c1.137 0.4 2 1.4 2.6 2.457c0.312 0.5 0.4 1.1 0.6 1.7 c0.053 0.6 0.1 1.2 0.1 1.763c-0.049 4.514-0.097 9.03-0.142 13.266c-0.013 1.06-0.022 2.101-0.033 3.1 c0.012 1.021-0.094 2.058-0.404 3.002c-0.591 1.888-1.92 3.461-3.557 4.086c-0.81 0.326-1.674 0.353-2.434 0.3 c-0.771-0.01-1.504-0.019-2.191-0.022c-1.377-0.017-2.576-0.027-3.563-0.037c-1.978-0.021-3.104-0.033-3.104-0.033 s1.129-0.014 3.104-0.033c0.987-0.012 2.188-0.023 3.563-0.039c0.688-0.008 1.42-0.016 2.191-0.023 c0.776 0 1.573-0.026 2.344-0.354c1.543-0.627 2.776-2.149 3.305-3.967c0.275-0.91 0.355-1.882 0.324-2.896 c-0.012-1.02-0.022-2.061-0.033-3.118c-0.045-4.232-0.094-8.75-0.143-13.267c0.115-2.188-0.924-4.338-2.871-5.084 c-0.221-0.138-0.474-0.146-0.705-0.224c-0.238-0.062-0.459-0.146-0.752-0.146l-0.82-0.06c-0.191-0.012-0.523 0.003-0.778 0 c-1.089 0.012-2.166 0.022-3.225 0.032c-4.233 0.047-8.187 0.088-11.573 0.125c-6.774 0.072-11.291 0.119-11.291 0.1 c-0.426 0.006-0.774-0.551-0.778-0.977c-0.006-0.426 0.336-0.994 0.762-0.994C30.573 133 30.6 133 30.6 133z"/>
			</g>
			<g>
				<path fill="#CE8163" d="M52.572 153c0 0-1.941-0.002-4.854-0.08c-0.722-0.006-1.556-0.061-2.245 0.1 c-0.729 0.103-1.492 0.426-2.162 0.906c-0.682 0.477-1.245 1.168-1.632 1.959c-0.382 0.803-0.546 1.697-0.486 2.6 c0.078 0.9 0.4 1.8 0.9 2.533c0.509 0.8 1.2 1.4 2 1.767c0.779 0.4 1.6 0.6 2.5 0.6 c0.836 0 1.6 0 2.4 0.043c2.913 0.1 4.9 0.1 4.9 0.091s-1.941 0.034-4.854 0.1 c-0.728 0.014-1.517 0.026-2.353 0.043c-0.847 0.033-1.769-0.111-2.627-0.506c-0.864-0.379-1.659-1.004-2.264-1.806 c-0.618-0.801-1.001-1.764-1.149-2.817c-0.116-0.986 0.009-2.078 0.404-3.023c0.399-0.947 1.022-1.795 1.805-2.408 c0.774-0.623 1.665-1.047 2.581-1.229c0.957-0.188 1.715-0.133 2.444-0.17c2.913-0.078 4.854-0.131 4.854-0.131 c0.426-0.013 0.8 0.3 0.8 0.698c0.013 0.427-0.323 0.742-0.75 0.742C52.602 153 52.6 153 52.6 153z"/>
			</g>
			<g>
				<path fill="#CE8163" d="M51.255 118.996l4.019-2.926l-2.926 4.018c-0.255 0.349-0.744 0.426-1.093 0.2 c-0.349-0.255-0.425-0.743-0.171-1.092C51.132 119.1 51.2 119 51.3 118.996z"/>
			</g>
			<g>
				<path fill="#CE8163" d="M52.335 151.807l3.709-2.178l-2.849 3.223c-0.252 0.283-0.684 0.312-0.967 0.1 c-0.285-0.25-0.312-0.685-0.061-0.967C52.217 151.9 52.3 151.8 52.3 151.807z"/>
			</g>
			<g>
				<path fill="#CE8163" d="M44.182 153.326l-7.811-4.469l8.393 3.246c0.35 0.1 0.5 0.5 0.4 0.9 c-0.135 0.35-0.527 0.521-0.877 0.387C44.242 153.4 44.2 153.3 44.2 153.326z"/>
			</g>
			<g>
				<path fill="#CE8163" d="M18.22 134.969c0 0-0.236 0.01-0.648 0.027c-0.193 0.02-0.486-0.004-0.715 0.1 c-0.229 0.062-0.491 0.125-0.785 0.188c-0.289 0.1-0.598 0.266-0.936 0.405c-0.314 0.181-0.615 0.427-0.947 0.7 c-0.254 0.309-0.597 0.572-0.818 0.939c-0.215 0.365-0.491 0.719-0.604 1.148l-0.231 0.622l-0.099 0.7 c-0.086 0.428-0.102 0.892-0.121 1.332c-0.045 0.885-0.088 1.709-0.123 2.416c-0.073 1.414-0.121 2.354-0.121 2.4 s-0.049-0.94-0.12-2.354c-0.036-0.707-0.078-1.531-0.123-2.416c-0.024-0.44-0.06-0.892-0.017-1.388l0.037-0.737l0.185-0.728 c0.087-0.504 0.348-0.938 0.562-1.396c0.221-0.451 0.575-0.81 0.854-1.203c0.356-0.315 0.696-0.647 1.059-0.907 c0.388-0.22 0.74-0.451 1.103-0.617c0.391-0.133 0.748-0.252 1.065-0.359c0.322-0.102 0.544-0.094 0.757-0.137 c0.407-0.062 0.642-0.096 0.642-0.096c0.423-0.062 0.8 0.2 0.9 0.649s-0.229 0.815-0.65 0.9 C18.272 135 18.2 135 18.2 134.969z"/>
			</g>
			<g>
				<path fill="#CE8163" d="M15.519 120.311c0 0-0.234 0.011-0.647 0.027c-0.192 0.021-0.487-0.005-0.716 0.1 s-0.49 0.123-0.783 0.188c-0.29 0.099-0.598 0.264-0.936 0.405c-0.314 0.181-0.615 0.426-0.949 0.7 c-0.254 0.308-0.596 0.572-0.816 0.938c-0.215 0.367-0.492 0.721-0.605 1.15l-0.229 0.622l-0.101 0.7 c-0.084 0.428-0.101 0.893-0.12 1.332c-0.046 0.885-0.087 1.709-0.123 2.416c-0.072 1.414-0.121 2.357-0.121 2.4 s-0.048-0.943-0.12-2.357c-0.036-0.707-0.079-1.531-0.124-2.416c-0.022-0.439-0.058-0.891-0.017-1.387l0.039-0.738l0.185-0.727 c0.086-0.503 0.349-0.941 0.562-1.396c0.221-0.452 0.576-0.811 0.854-1.205c0.356-0.314 0.696-0.647 1.058-0.907 c0.387-0.22 0.739-0.451 1.104-0.617c0.391-0.132 0.748-0.252 1.064-0.359c0.323-0.102 0.543-0.094 0.756-0.138 c0.41-0.061 0.643-0.095 0.643-0.095c0.422-0.062 0.8 0.2 0.9 0.65s-0.229 0.815-0.649 0.9 C15.571 120.3 15.5 120.3 15.5 120.311z"/>
			</g>
			<g>
				<path fill="#CE8163" d="M41.243 157.203l-10.271 3.227l9.785-4.488c0.342-0.155 0.743-0.008 0.9 0.3 c0.156 0.3 0 0.742-0.334 0.898C41.298 157.2 41.3 157.2 41.2 157.203z"/>
			</g>
			<g>
				<path fill="#147C4A" d="M4.56 202.17c0 0 0.2 0.1 0.5 0.312c0.285 0.2 0.8 0.5 1.3 0.8 c0.607 0.3 1.3 0.8 2.2 1.162c0.438 0.2 0.9 0.4 1.4 0.664c0.5 0.2 1 0.4 1.6 0.7 c1.1 0.5 2.3 0.9 3.6 1.324c1.317 0.4 2.7 0.8 4.2 1.137c0.73 0.2 1.5 0.4 2.2 0.5 c0.764 0.1 1.5 0.2 2.3 0.373l1.172 0.188l1.189 0.107c0.795 0.1 1.6 0.1 2.4 0.2 c1.603 0.1 3.2 0.1 4.8 0.123c1.582-0.09 3.139-0.178 4.645-0.262c1.498-0.199 2.945-0.393 4.318-0.576 c0.691-0.072 1.349-0.223 1.985-0.365c0.638-0.139 1.254-0.271 1.846-0.399c1.182-0.269 2.28-0.459 3.213-0.781 c0.943-0.283 1.766-0.533 2.443-0.735C53.225 206.2 54 206 54 206s-0.766 0.264-2.104 0.7 c-0.67 0.23-1.484 0.512-2.418 0.834c-0.924 0.357-2.016 0.594-3.19 0.906c-0.59 0.152-1.203 0.311-1.839 0.5 c-0.635 0.168-1.291 0.347-1.982 0.445c-1.377 0.238-2.829 0.488-4.331 0.748c-1.52 0.145-3.09 0.293-4.686 0.4 c-1.604 0.018-3.235 0.104-4.866 0.062c-0.815-0.043-1.632-0.086-2.442-0.127l-1.219-0.064l-1.201-0.146 c-0.801-0.098-1.594-0.193-2.377-0.291c-0.781-0.113-1.545-0.281-2.301-0.418c-1.52-0.246-2.947-0.668-4.318-1.004 c-1.35-0.406-2.635-0.781-3.789-1.221c-0.578-0.217-1.131-0.426-1.658-0.625c-0.519-0.223-1.01-0.436-1.471-0.635 c-0.929-0.392-1.707-0.81-2.357-1.129c-0.641-0.349-1.145-0.617-1.495-0.836c-0.334-0.205-0.513-0.316-0.513-0.316L4.56 202.17z "/>
			</g>
			<g>
				<polygon fill="#147C4A" points="7.5,205.9 10,191 8.5,206.1"/>
			</g>
			<g>
				<polygon fill="#147C4A" points="14.5,208 16,193 15.5,208"/>
			</g>
			<g>
				<polygon fill="#147C4A" points="24,210 24.5,195 25,210"/>
			</g>
			<g>
				<polygon fill="#147C4A" points="31,210 31.5,195 32,210"/>
			</g>
			<g>
				<polygon fill="#147C4A" points="38.5,209 38,195 39.5,209"/>
			</g>
			<g>
				<polygon fill="#147C4A" points="46.5,208.1 45,194 47.5,207.9"/>
			</g>
		</g>
		<g>
			<path fill="#E5A383" d="M56.545 102.418c-0.248-0.332-0.445-0.555-0.57-0.617c-0.242-0.121-0.516-0.211-0.801-0.281 C55.637 101.8 56.1 102.1 56.5 102.418z"/>
			<path fill="#E5A383" d="M31.545 183.932c-6.086 0-10.873-2.301-16.119-4.635c0.076 0.4 0.1 0.6 0.1 0.6 s-0.815 8.5 15 10c11.024 1.1 18-7 22-26C44.545 179.9 36.2 183.9 31.5 183.932z"/>
		</g>
	</g>
</g>
<g>
	<g>
		<path opacity="0.3" enable-background="new    " d="M255.571 50H233v58.57c0 3.6 3.9 7.4 7.4 7.43h5.891l-6.858 6.4 l0.186-0.275c-0.02 0.007-0.049-0.105-0.064-0.1c-2.356 1.049-2.356 3.871-1.571 7.541c0.35 1.6 4.2 22.1 6 31.429h0.017 c2.315 0 2.985-2.592 2.985-4.908v-9.625l0.416 0.006l0.271-3.059l0.549-1.611c0 0 3.316-2.74 3.984-3.408 c1.312-1.312-0.213-3.408-0.213-3.408s-4.01-7.445-7.01-12.329c0-0.331 0-0.657 0-0.657h10.569c3.552 0 5.431-3.879 5.431-7.43 V55.43C261 51.9 259.1 50 255.6 50z"/>
	</g>
</g>
<g>
	<g>
		<path opacity="0.3" enable-background="new    " d="M154 57.434v68.134c0 4.1 4.3 8.4 8.4 8.433h2.636l-6.331-6h6.831 c4.104 0 6.432-4.328 6.432-8.434V51.434c0-0.153-0.024-1.285-0.031-1.434h-9.535C158.329 50 154 53.3 154 57.434z"/>
	</g>
</g>
<g>
	<path fill="#FFFFFF" d="M170 48.013V9.473c0-5.225-4.113-9.46-9.34-9.46H95.58c-5.225 0-9.58 4.235-9.58 9.46v38.54H170z"/>
</g>
<path fill="#FFFFFF" d="M238 40.999V7.356C238 3.3 234.8 0 230.7 0h-51.133C175.483 0 172 3.3 172 7.356V41L238 41 L238 40.999z"/>
</svg>
