<?xml version="1.0" encoding="utf-8"?>
<!-- Generator: Adobe Illustrator 16.0.0, SVG Export Plug-In . SVG Version: 6.00 Build 0)  -->
<!DOCTYPE svg PUBLIC "-//W3C//DTD SVG 1.1//EN" "http://www.w3.org/Graphics/SVG/1.1/DTD/svg11.dtd">
<svg version="1.1" id="Layer_1" xmlns="http://www.w3.org/2000/svg" xmlns:xlink="http://www.w3.org/1999/xlink" x="0px" y="0px"
	 width="24px" height="24px" viewBox="0 0 24 24" enable-background="new 0 0 24 24" xml:space="preserve">
<g>
	<path d="M11.106,12.069c0.542,0,0.979-0.488,0.979-1.084c0-0.6-0.437-1.083-0.979-1.083c-0.541,0-0.983,0.483-0.983,1.083
		C10.123,11.581,10.565,12.069,11.106,12.069z M11.294,10.038c0.247,0,0.448,0.22,0.448,0.493s-0.201,0.495-0.448,0.495
		c-0.249,0-0.45-0.222-0.45-0.495S11.045,10.038,11.294,10.038z"/>
	<path d="M14.814,12.069c0.546,0,0.984-0.488,0.984-1.084c0-0.6-0.438-1.083-0.984-1.083c-0.541,0-0.98,0.483-0.98,1.083
		C13.834,11.581,14.273,12.069,14.814,12.069z M15.003,10.038c0.247,0,0.449,0.22,0.449,0.493s-0.202,0.495-0.449,0.495
		c-0.244,0-0.446-0.222-0.446-0.495S14.759,10.038,15.003,10.038z"/>
	<path d="M20.197,5.485c-0.008-0.033-0.012-0.063-0.031-0.09c-0.006-0.008-0.003-0.018-0.009-0.023
		c-0.018-0.02-0.044-0.02-0.065-0.032c-0.021-0.013-0.032-0.037-0.058-0.044l-1.535-0.404l0.745-1.402
		c0.02-0.037,0.011-0.077,0.011-0.117c0.024-0.041,0.049-0.085,0.044-0.137c-0.012-0.137-0.128-0.237-0.271-0.228l-1.121,0.099
		l-0.688-1.76c-0.001-0.002-0.003-0.002-0.004-0.004c-0.013-0.031-0.045-0.049-0.069-0.072c-0.022-0.021-0.037-0.051-0.065-0.063
		c-0.002,0-0.002-0.003-0.004-0.004c-0.03-0.012-0.06,0.002-0.091,0.002c-0.03,0-0.061-0.013-0.09-0.001
		c-0.002,0.001-0.002,0.003-0.004,0.004c-0.03,0.013-0.046,0.043-0.068,0.065C16.8,1.298,16.77,1.313,16.757,1.344
		c-0.001,0.002-0.003,0.003-0.004,0.005l-0.273,0.709l-1.669-1.67c-0.012-0.011-0.028-0.008-0.041-0.017s-0.016-0.026-0.03-0.032
		c-0.018-0.01-0.036,0.001-0.055-0.003c-0.032-0.007-0.058-0.01-0.091-0.005c-0.034,0.006-0.06,0.018-0.089,0.037
		c-0.015,0.01-0.034,0.007-0.048,0.02c-0.011,0.012-0.008,0.028-0.017,0.041s-0.026,0.016-0.033,0.031L14.07,1.186l-1.963-1.103
		c-0.02-0.012-0.041-0.002-0.063-0.008s-0.036-0.024-0.06-0.024c-0.013,0-0.021,0.012-0.033,0.014
		c-0.032,0.005-0.055,0.019-0.083,0.034c-0.029,0.018-0.054,0.031-0.074,0.059c-0.008,0.01-0.021,0.01-0.027,0.021
		c-0.011,0.02-0.002,0.041-0.008,0.063s-0.024,0.036-0.024,0.06v0.884C10.573,0.552,9.337,0.144,9.13,0.077
		C9.093,0.057,9.052,0.044,9.005,0.051c-0.021,0-0.035,0.019-0.055,0.023C8.918,0.082,8.893,0.09,8.866,0.109
		C8.839,0.13,8.823,0.152,8.806,0.182C8.795,0.198,8.774,0.206,8.769,0.226c-0.004,0.014,0.005,0.026,0.004,0.04
		C8.77,0.279,8.757,0.288,8.757,0.304L8.77,1.756L6.652,0.591C6.648,0.589,6.645,0.592,6.642,0.59
		C6.638,0.589,6.638,0.583,6.634,0.582C6.604,0.569,6.576,0.581,6.546,0.579C6.515,0.578,6.484,0.567,6.454,0.577
		C6.422,0.588,6.402,0.616,6.376,0.64C6.355,0.658,6.327,0.665,6.313,0.69C6.312,0.693,6.314,0.697,6.313,0.7
		C6.311,0.704,6.306,0.705,6.304,0.709c-0.195,0.44-0.158,1.243-0.105,1.774L4.242,1.361C4.234,1.356,4.226,1.362,4.218,1.358
		c-0.009-0.004-0.011-0.014-0.02-0.018C4.172,1.333,4.149,1.347,4.124,1.347C4.091,1.346,4.063,1.341,4.032,1.353
		C4,1.364,3.98,1.388,3.956,1.411C3.938,1.428,3.914,1.433,3.901,1.454c-0.005,0.008,0,0.016-0.003,0.024
		C3.895,1.487,3.884,1.489,3.881,1.499C3.454,2.771,4.58,5.577,5.057,6.667L4.164,6.5C4.151,6.497,4.143,6.507,4.13,6.507
		c-0.013-0.001-0.019-0.011-0.033-0.01C4.074,6.499,4.062,6.519,4.041,6.525C4.008,6.536,3.979,6.546,3.954,6.57
		C3.932,6.591,3.923,6.614,3.909,6.642C3.898,6.663,3.877,6.675,3.872,6.7C3.87,6.712,3.88,6.722,3.879,6.734
		c0,0.012-0.011,0.021-0.01,0.032c0.204,2.412,2.287,3.029,3.003,3.171l-0.094,1.21c0,0.005,0.004,0.008,0.004,0.014
		c-0.001,0.033,0.018,0.06,0.03,0.092c0.012,0.029,0.016,0.061,0.037,0.083c0.004,0.003,0.002,0.009,0.006,0.013
		c0.025,0.024,0.06,0.025,0.091,0.036c0.021,0.009,0.036,0.029,0.062,0.031c0.007,0.001,0.014,0.001,0.02,0.001
		c0.068,0,0.129-0.029,0.174-0.075c0.002-0.003,0.006-0.001,0.008-0.003l0.003-0.004l0.404,1.366
		c0.017,0.057,0.052,0.102,0.097,0.133c0.002,0.001,0.002,0.004,0.004,0.005c0.043,0.027,0.091,0.041,0.139,0.041
		c0.023,0,0.047-0.003,0.071-0.01c0.006-0.002,0.008-0.008,0.013-0.01c0.049-0.019,0.094-0.045,0.124-0.092l0.371-0.559
		c0.29,0.493,0.622,0.927,0.983,1.31c-0.805,2.281-0.909,3.854-0.304,4.665c0.247,0.33,0.546,0.447,0.759,0.492v0.317l-0.779,3.175
		C9.091,22.18,9.1,22.188,9.099,22.2c-0.001,0.01-0.012,0.017-0.012,0.027c0,0.025,0.02,0.041,0.026,0.063
		c0.009,0.033,0.015,0.061,0.035,0.086c0.021,0.026,0.046,0.039,0.074,0.055c0.021,0.012,0.031,0.034,0.055,0.04
		c0.02,0.005,0.04,0.007,0.06,0.007h0.72l0.203,1.264c0.006,0.035,0.031,0.06,0.051,0.088c0.011,0.018,0.014,0.039,0.029,0.053
		c0.045,0.042,0.103,0.069,0.167,0.069h1.057c0.061,0,0.114-0.026,0.159-0.065c0.015-0.014,0.021-0.027,0.032-0.044
		c0.015-0.021,0.036-0.034,0.045-0.06l0.45-1.305h0.709h0.709l0.45,1.305c0.009,0.025,0.03,0.039,0.045,0.06
		c0.012,0.017,0.018,0.03,0.032,0.044c0.045,0.039,0.099,0.065,0.159,0.065h1.057c0.064,0,0.122-0.027,0.167-0.069
		c0.016-0.014,0.019-0.035,0.029-0.053c0.02-0.028,0.045-0.053,0.051-0.088l0.203-1.264h1.045c0.02,0,0.039-0.002,0.06-0.007
		c0.023-0.006,0.034-0.028,0.055-0.04c0.028-0.016,0.054-0.028,0.074-0.055c0.021-0.025,0.026-0.053,0.036-0.086
		c0.006-0.021,0.025-0.037,0.025-0.063c0-0.011-0.011-0.018-0.012-0.027c-0.001-0.012,0.008-0.021,0.005-0.031l-0.766-3.127
		l1.465-1.459c0.013-0.013,0.01-0.031,0.019-0.046c0.019-0.027,0.029-0.052,0.035-0.085c0.007-0.032,0.007-0.059,0.001-0.092
		c-0.003-0.017,0.007-0.032,0-0.049l-1.502-3.684c0.578-0.584,1.086-1.305,1.479-2.156l0.067,1.173
		c0.001,0.024,0.021,0.04,0.028,0.062c0.01,0.028,0.017,0.052,0.035,0.075c0.022,0.027,0.049,0.041,0.08,0.057
		c0.019,0.011,0.028,0.031,0.05,0.036c0.02,0.004,0.038,0.006,0.057,0.006c0.005,0,0.01,0,0.015,0
		c0.014-0.001,0.021-0.014,0.033-0.016c0.046-0.01,0.087-0.026,0.12-0.059c0.017-0.016,0.023-0.035,0.035-0.057
		c0.013-0.021,0.034-0.037,0.04-0.063l0.773-3.34l0.637,0.346c0.038,0.021,0.078,0.03,0.119,0.03c0.038,0,0.076-0.009,0.111-0.026
		c0.002-0.001,0.002-0.004,0.004-0.005c0.043-0.022,0.08-0.054,0.104-0.1c0.004-0.007-0.001-0.015,0.002-0.022
		c0.014-0.031,0.01-0.061,0.01-0.094c0.001-0.032,0.006-0.061-0.006-0.092c-0.003-0.008,0.002-0.016-0.002-0.023L18.92,6.806
		l1.217-1.081c0.011-0.009,0.008-0.024,0.017-0.034c0.023-0.027,0.05-0.053,0.06-0.089c0.002-0.009-0.005-0.017-0.004-0.026
		C20.214,5.544,20.204,5.517,20.197,5.485z M9.018,10.279L9.018,10.279l-0.001,0.005c-0.003,0.033,0.019,0.057,0.026,0.086
		c0.009,0.031,0.006,0.066,0.027,0.094c0.001,0,0.002,0,0.002,0c0.041,0.051,0.102,0.086,0.171,0.092
		c0.008,0,0.016,0.001,0.022,0.001c0.055,0,0.11-0.019,0.156-0.056l2.268-1.822l0.258,0.635c0.021,0.053,0.059,0.091,0.104,0.118
		c0.002,0.001,0.002,0.005,0.005,0.007c0.039,0.021,0.081,0.031,0.123,0.031c0.031,0,0.063-0.006,0.094-0.018
		c0.005-0.002,0.005-0.008,0.01-0.01c0.046-0.021,0.088-0.052,0.114-0.1l0.628-1.113l1.173,1.036
		c0.016,0.014,0.037,0.011,0.055,0.021c0.014,0.008,0.02,0.025,0.035,0.029c0.025,0.009,0.051,0.013,0.076,0.013
		c0.064,0,0.12-0.031,0.166-0.075c0.006-0.006,0.016-0.003,0.021-0.01c0.009-0.01,0.005-0.024,0.013-0.036
		c0.012-0.019,0.031-0.03,0.038-0.052l0.154-0.479l1.121,0.984c0.005,0.004,0.013,0.002,0.019,0.006
		c0.005,0.004,0.005,0.012,0.01,0.016c0.042,0.027,0.09,0.04,0.137,0.04c0.063,0,0.121-0.03,0.169-0.076
		c0.005-0.005,0.014-0.003,0.019-0.009c0.003-0.004,0.001-0.009,0.004-0.013c0.006-0.007,0.013-0.009,0.018-0.016l0.286-0.438
		l0.932,1.999c-0.97,2.174-2.668,3.532-4.509,3.532c-2.059,0-3.937-1.706-4.82-4.351l0.962-1.019L9.018,10.279z M16.387,14.915
		l0.991,2.431l-0.991,0.987V14.915z M9.515,17.886c-0.274-0.367-0.571-1.381,0.298-3.963c0.921,0.816,2.007,1.279,3.147,1.279
		c0.779,0,1.528-0.23,2.223-0.625l-2.722,4.199h-2.088v-3.253c0-0.138-0.112-0.25-0.25-0.25s-0.25,0.112-0.25,0.25v2.639
		C9.763,18.119,9.632,18.042,9.515,17.886z M11.385,23.451H10.72l-0.156-0.974h1.157L11.385,23.451z M15.198,23.451h-0.665
		l-0.336-0.974h1.157L15.198,23.451z"/>
</g>
</svg>
